<?xml version="1.0" encoding="utf-8"?>
<!-- Generator: Adobe Illustrator 26.5.2, SVG Export Plug-In . SVG Version: 6.00 Build 0)  -->
<svg version="1.1" id="Layer_1" xmlns="http://www.w3.org/2000/svg" xmlns:xlink="http://www.w3.org/1999/xlink" x="0px" y="0px"
	 viewBox="0 0 1080 1080" style="enable-background:new 0 0 1080 1080;" xml:space="preserve">
<style type="text/css">
	.st0{fill:#2389AF;}
	.st1{fill:#2389AF;}
</style>
<g>
	<g>
		<path d="M2432.29,1280.2h58.91v14.94h-42.3v8.35h39.52v14.94h-39.52v23.38h-16.61V1280.2z"/>
		<path d="M2505.58,1280.2h60.02v14.94h-43.41v8.35h40.63v14.94h-40.63v8.53h43.41v14.84h-60.02V1280.2z"/>
		<path d="M2581.09,1280.2h16.61v46.75h33.4v14.84h-50V1280.2z"/>
		<path d="M2644.35,1280.2h16.61v46.75h33.4v14.84h-50V1280.2z"/>
		<path d="M2733.59,1279.09c5.44,0,10.16,0.97,14.15,2.92c3.99,1.95,7.28,4.47,9.88,7.56c2.6,3.09,4.53,6.53,5.8,10.3
			c1.27,3.77,1.9,7.48,1.9,11.13c0,3.65-0.63,7.38-1.9,11.18c-1.27,3.8-3.2,7.24-5.8,10.3c-2.6,3.06-5.89,5.57-9.88,7.51
			c-3.99,1.95-8.71,2.92-14.15,2.92c-5.38,0-10.06-0.97-14.05-2.92c-3.99-1.95-7.28-4.45-9.88-7.51c-2.6-3.06-4.53-6.49-5.8-10.3
			c-1.27-3.8-1.9-7.53-1.9-11.18c0-3.65,0.63-7.36,1.9-11.13c1.27-3.77,3.2-7.2,5.8-10.3c2.6-3.09,5.89-5.61,9.88-7.56
			C2723.53,1280.06,2728.21,1279.09,2733.59,1279.09z M2733.59,1294.49c-2.47,0-4.62,0.51-6.45,1.53c-1.83,1.02-3.32,2.32-4.5,3.9
			c-1.18,1.58-2.06,3.34-2.64,5.29c-0.59,1.95-0.88,3.88-0.88,5.8c0,1.92,0.29,3.85,0.88,5.8c0.59,1.95,1.47,3.71,2.64,5.29
			c1.17,1.58,2.67,2.86,4.5,3.85c1.82,0.99,3.97,1.48,6.45,1.48c2.54,0,4.72-0.49,6.54-1.48c1.82-0.99,3.34-2.27,4.55-3.85
			c1.21-1.58,2.1-3.34,2.69-5.29c0.59-1.95,0.88-3.88,0.88-5.8c0-1.92-0.29-3.85-0.88-5.8c-0.59-1.95-1.48-3.71-2.69-5.29
			c-1.21-1.58-2.72-2.88-4.55-3.9C2738.31,1295,2736.13,1294.49,2733.59,1294.49z"/>
		<path d="M2775.62,1280.2h16.42l5.66,33.12l8.26-24.49h14.94l8.72,24.58l5.1-33.21h16.42l-9.09,61.6h-16.05l-12.62-26.81
			l-12.52,26.81h-16.05L2775.62,1280.2z"/>
		<path d="M2864.3,1341.8v-61.6h45.64c3.46,0,6.42,0.59,8.86,1.76c2.44,1.18,4.45,2.69,6.03,4.55c1.58,1.85,2.72,3.93,3.43,6.21
			c0.71,2.29,1.07,4.58,1.07,6.86c0,2.29-0.39,4.55-1.16,6.77c-0.77,2.23-1.95,4.24-3.53,6.03c-1.58,1.79-3.59,3.25-6.03,4.36
			c-2.44,1.11-5.33,1.67-8.67,1.67h-29.04v23.38H2864.3z M2880.9,1303.49h29.04c0.87,0,1.54-0.29,2.04-0.88
			c0.49-0.59,0.74-1.41,0.74-2.46v-1.67c0-1.05-0.25-1.87-0.74-2.46c-0.5-0.59-1.18-0.88-2.04-0.88h-29.04V1303.49z"/>
		<path d="M2943.06,1341.8v-61.6h42.86c3.46,0,6.42,0.59,8.86,1.76c2.44,1.18,4.45,2.69,6.03,4.55c1.58,1.85,2.72,3.93,3.43,6.21
			c0.71,2.29,1.07,4.58,1.07,6.86c0,1.8-0.25,3.6-0.74,5.43c-0.5,1.82-1.25,3.56-2.27,5.19c-1.02,1.64-2.35,3.09-3.99,4.36
			c-1.64,1.27-3.63,2.24-5.98,2.92c0,0.06,0.01,0.09,0.05,0.09c0.03,0,0.05,0.03,0.05,0.09l14.66,24.12h-18.74l-14.1-23.38h-14.56
			v23.38H2943.06z M2959.66,1303.49h26.25c0.87,0,1.54-0.29,2.04-0.88c0.49-0.59,0.74-1.41,0.74-2.46v-1.67
			c0-1.05-0.25-1.87-0.74-2.46c-0.5-0.59-1.18-0.88-2.04-0.88h-26.25V1303.49z"/>
		<path d="M3049.27,1279.09c5.44,0,10.16,0.97,14.15,2.92c3.99,1.95,7.28,4.47,9.88,7.56c2.6,3.09,4.53,6.53,5.8,10.3
			c1.27,3.77,1.9,7.48,1.9,11.13c0,3.65-0.63,7.38-1.9,11.18c-1.27,3.8-3.2,7.24-5.8,10.3c-2.6,3.06-5.89,5.57-9.88,7.51
			c-3.99,1.95-8.71,2.92-14.15,2.92c-5.38,0-10.06-0.97-14.05-2.92c-3.99-1.95-7.28-4.45-9.88-7.51c-2.6-3.06-4.53-6.49-5.8-10.3
			c-1.27-3.8-1.9-7.53-1.9-11.18c0-3.65,0.63-7.36,1.9-11.13c1.27-3.77,3.2-7.2,5.8-10.3c2.6-3.09,5.89-5.61,9.88-7.56
			C3039.21,1280.06,3043.89,1279.09,3049.27,1279.09z M3049.27,1294.49c-2.47,0-4.62,0.51-6.45,1.53c-1.83,1.02-3.33,2.32-4.5,3.9
			c-1.18,1.58-2.06,3.34-2.64,5.29c-0.59,1.95-0.88,3.88-0.88,5.8c0,1.92,0.29,3.85,0.88,5.8c0.59,1.95,1.47,3.71,2.64,5.29
			c1.17,1.58,2.67,2.86,4.5,3.85c1.82,0.99,3.97,1.48,6.45,1.48c2.54,0,4.72-0.49,6.54-1.48c1.82-0.99,3.34-2.27,4.55-3.85
			c1.21-1.58,2.1-3.34,2.69-5.29c0.59-1.95,0.88-3.88,0.88-5.8c0-1.92-0.3-3.85-0.88-5.8c-0.59-1.95-1.48-3.71-2.69-5.29
			c-1.21-1.58-2.72-2.88-4.55-3.9C3053.99,1295,3051.81,1294.49,3049.27,1294.49z"/>
	</g>
	<g>
		<path d="M2360.37,1330.9v39.56h-66.18c-7.28,0-13.18-5.9-13.18-13.18v-66.18h39.56v28.51c0,6.24,5.05,11.29,11.29,11.29H2360.37z"
			/>
	</g>
	<g>
		<path d="M2399.93,1330.9h-39.56v-28.51c0-6.24-5.05-11.29-11.29-11.29h-28.51v-39.56h66.18c7.28,0,13.18,5.9,13.18,13.18V1330.9z"
			/>
	</g>
</g>
<g>
	<g>
		<g>
			<path d="M1830.23,881.09v99.8h-166.94c-18.37,0-33.26-14.89-33.26-33.26V780.69h99.8v71.92c0,15.73,12.75,28.48,28.48,28.48
				H1830.23z"/>
		</g>
	</g>
	<g>
		<g>
			<path d="M1930.03,881.09h-99.8v-71.92c0-15.73-12.75-28.48-28.48-28.48h-71.92v-99.8h166.94c18.37,0,33.26,14.89,33.26,33.26
				V881.09z"/>
		</g>
	</g>
</g>
<g>
	<g>
		<g>
			<path d="M2778.16,658.1v232.87h-389.53c-42.86,0-77.6-34.74-77.6-77.6V423.84h232.87v167.81c0,36.7,29.75,66.45,66.45,66.45
				H2778.16z"/>
		</g>
	</g>
	<g>
		<g>
			<path d="M3011.03,658.1h-232.87V490.29c0-36.7-29.75-66.45-66.45-66.45H2543.9V190.97h389.53c42.86,0,77.6,34.74,77.6,77.6V658.1
				z"/>
		</g>
	</g>
</g>
<g>
	<g>
		<g>
			<path d="M1380.41,1001.06v39.92h-66.78c-7.35,0-13.3-5.96-13.3-13.3V960.9h39.92v28.77c0,6.29,5.1,11.39,11.39,11.39H1380.41z"/>
		</g>
	</g>
	<g>
		<g>
			<path d="M1420.33,1001.06h-39.92v-28.77c0-6.29-5.1-11.39-11.39-11.39h-28.77v-39.92h66.78c7.35,0,13.3,5.96,13.3,13.3V1001.06z"
				/>
		</g>
	</g>
</g>
<g>
	<g>
		<path d="M1660.98,1361.58h29.45v7.47h-21.15v4.17h19.76v7.47h-19.76v11.69h-8.3V1361.58z"/>
		<path d="M1697.62,1361.58h30.01v7.47h-21.71v4.17h20.32v7.47h-20.32v4.27h21.71v7.42h-30.01V1361.58z"/>
		<path d="M1735.37,1361.58h8.3v23.38h16.7v7.42h-25V1361.58z"/>
		<path d="M1767.01,1361.58h8.3v23.38h16.7v7.42h-25V1361.58z"/>
		<path d="M1811.63,1361.03c2.72,0,5.08,0.49,7.07,1.46c1.99,0.97,3.64,2.23,4.94,3.78c1.3,1.55,2.26,3.26,2.9,5.15
			c0.63,1.89,0.95,3.74,0.95,5.57c0,1.82-0.32,3.69-0.95,5.59c-0.63,1.9-1.6,3.62-2.9,5.15c-1.3,1.53-2.95,2.78-4.94,3.76
			c-1.99,0.97-4.35,1.46-7.07,1.46c-2.69,0-5.03-0.49-7.03-1.46c-1.99-0.97-3.64-2.23-4.94-3.76c-1.3-1.53-2.27-3.25-2.9-5.15
			c-0.63-1.9-0.95-3.76-0.95-5.59c0-1.82,0.32-3.68,0.95-5.57c0.63-1.89,1.6-3.6,2.9-5.15c1.3-1.55,2.95-2.81,4.94-3.78
			C1806.6,1361.51,1808.94,1361.03,1811.63,1361.03z M1811.63,1368.73c-1.24,0-2.31,0.26-3.22,0.77c-0.91,0.51-1.66,1.16-2.25,1.95
			c-0.59,0.79-1.03,1.67-1.32,2.64c-0.29,0.97-0.44,1.94-0.44,2.9c0,0.96,0.15,1.92,0.44,2.9c0.29,0.97,0.73,1.86,1.32,2.64
			c0.59,0.79,1.34,1.43,2.25,1.93c0.91,0.49,1.99,0.74,3.22,0.74c1.27,0,2.36-0.25,3.27-0.74c0.91-0.49,1.67-1.14,2.27-1.93
			c0.6-0.79,1.05-1.67,1.35-2.64c0.29-0.97,0.44-1.94,0.44-2.9c0-0.96-0.15-1.92-0.44-2.9c-0.29-0.97-0.74-1.86-1.35-2.64
			c-0.6-0.79-1.36-1.44-2.27-1.95C1813.99,1368.98,1812.9,1368.73,1811.63,1368.73z"/>
		<path d="M1832.64,1361.58h8.21l2.83,16.56l4.13-12.25h7.47l4.36,12.29l2.55-16.6h8.21l-4.55,30.8h-8.02l-6.31-13.4l-6.26,13.4
			h-8.02L1832.64,1361.58z"/>
		<path d="M1876.98,1392.38v-30.8h22.82c1.73,0,3.21,0.29,4.43,0.88c1.22,0.59,2.23,1.35,3.01,2.27c0.79,0.93,1.36,1.96,1.72,3.11
			c0.36,1.14,0.53,2.29,0.53,3.43c0,1.14-0.19,2.27-0.58,3.39c-0.39,1.11-0.97,2.12-1.76,3.01c-0.79,0.9-1.79,1.62-3.01,2.18
			c-1.22,0.56-2.67,0.84-4.34,0.84h-14.52v11.69H1876.98z M1885.28,1373.22h14.52c0.43,0,0.77-0.15,1.02-0.44
			c0.25-0.29,0.37-0.7,0.37-1.23v-0.83c0-0.53-0.12-0.93-0.37-1.23c-0.25-0.29-0.59-0.44-1.02-0.44h-14.52V1373.22z"/>
		<path d="M1916.36,1392.38v-30.8h21.43c1.73,0,3.21,0.29,4.43,0.88c1.22,0.59,2.23,1.35,3.01,2.27c0.79,0.93,1.36,1.96,1.72,3.11
			c0.35,1.14,0.53,2.29,0.53,3.43c0,0.9-0.12,1.8-0.37,2.71c-0.25,0.91-0.63,1.78-1.14,2.6c-0.51,0.82-1.18,1.55-1.99,2.18
			c-0.82,0.63-1.82,1.12-2.99,1.46c0,0.03,0.01,0.05,0.02,0.05c0.02,0,0.02,0.02,0.02,0.05l7.33,12.06H1939l-7.05-11.69h-7.28v11.69
			H1916.36z M1924.66,1373.22h13.13c0.43,0,0.77-0.15,1.02-0.44c0.25-0.29,0.37-0.7,0.37-1.23v-0.83c0-0.53-0.12-0.93-0.37-1.23
			c-0.25-0.29-0.59-0.44-1.02-0.44h-13.13V1373.22z"/>
		<path d="M1969.47,1361.03c2.72,0,5.08,0.49,7.07,1.46c1.99,0.97,3.64,2.23,4.94,3.78c1.3,1.55,2.26,3.26,2.9,5.15
			c0.63,1.89,0.95,3.74,0.95,5.57c0,1.82-0.32,3.69-0.95,5.59c-0.63,1.9-1.6,3.62-2.9,5.15c-1.3,1.53-2.95,2.78-4.94,3.76
			c-1.99,0.97-4.35,1.46-7.07,1.46c-2.69,0-5.03-0.49-7.03-1.46c-1.99-0.97-3.64-2.23-4.94-3.76c-1.3-1.53-2.27-3.25-2.9-5.15
			c-0.63-1.9-0.95-3.76-0.95-5.59c0-1.82,0.32-3.68,0.95-5.57c0.63-1.89,1.6-3.6,2.9-5.15c1.3-1.55,2.95-2.81,4.94-3.78
			C1964.44,1361.51,1966.78,1361.03,1969.47,1361.03z M1969.47,1368.73c-1.24,0-2.31,0.26-3.22,0.77c-0.91,0.51-1.66,1.16-2.25,1.95
			c-0.59,0.79-1.03,1.67-1.32,2.64c-0.29,0.97-0.44,1.94-0.44,2.9c0,0.96,0.15,1.92,0.44,2.9c0.29,0.97,0.73,1.86,1.32,2.64
			c0.59,0.79,1.34,1.43,2.25,1.93c0.91,0.49,1.99,0.74,3.22,0.74c1.27,0,2.36-0.25,3.27-0.74c0.91-0.49,1.67-1.14,2.27-1.93
			c0.6-0.79,1.05-1.67,1.35-2.64c0.29-0.97,0.44-1.94,0.44-2.9c0-0.96-0.15-1.92-0.44-2.9c-0.29-0.97-0.74-1.86-1.35-2.64
			c-0.6-0.79-1.36-1.44-2.27-1.95C1971.83,1368.98,1970.74,1368.73,1969.47,1368.73z"/>
	</g>
	<g>
		<path d="M1625.01,1386.93v19.78h-33.09c-3.64,0-6.59-2.95-6.59-6.59v-33.09h19.78v14.26c0,3.12,2.53,5.65,5.65,5.65H1625.01z"/>
	</g>
	<g>
		<path d="M1644.8,1386.93h-19.78v-14.26c0-3.12-2.53-5.65-5.65-5.65h-14.26v-19.78h33.09c3.64,0,6.59,2.95,6.59,6.59V1386.93z"/>
	</g>
</g>
<g>
	<g>
		<path d="M1304.79,1403.07h13.25v3.36h-9.52v1.88h8.89v3.36h-8.89v5.26h-3.74V1403.07z"/>
		<path d="M1321.28,1403.07h13.5v3.36h-9.77v1.88h9.14v3.36h-9.14v1.92h9.77v3.34h-13.5V1403.07z"/>
		<path d="M1338.27,1403.07h3.74v10.52h7.51v3.34h-11.25V1403.07z"/>
		<path d="M1352.5,1403.07h3.74v10.52h7.51v3.34h-11.25V1403.07z"/>
		<path d="M1372.58,1402.82c1.22,0,2.29,0.22,3.18,0.66c0.9,0.44,1.64,1.01,2.22,1.7c0.58,0.7,1.02,1.47,1.3,2.32
			c0.29,0.85,0.43,1.68,0.43,2.5c0,0.82-0.14,1.66-0.43,2.52c-0.29,0.86-0.72,1.63-1.3,2.32c-0.58,0.69-1.33,1.25-2.22,1.69
			c-0.9,0.44-1.96,0.66-3.18,0.66c-1.21,0-2.26-0.22-3.16-0.66c-0.9-0.44-1.64-1-2.22-1.69c-0.58-0.69-1.02-1.46-1.3-2.32
			c-0.29-0.86-0.43-1.69-0.43-2.52c0-0.82,0.14-1.66,0.43-2.5c0.29-0.85,0.72-1.62,1.3-2.32c0.58-0.7,1.33-1.26,2.22-1.7
			C1370.32,1403.04,1371.37,1402.82,1372.58,1402.82z M1372.58,1406.28c-0.56,0-1.04,0.11-1.45,0.34c-0.41,0.23-0.75,0.52-1.01,0.88
			c-0.26,0.35-0.46,0.75-0.59,1.19c-0.13,0.44-0.2,0.87-0.2,1.3c0,0.43,0.07,0.87,0.2,1.3c0.13,0.44,0.33,0.83,0.59,1.19
			c0.26,0.35,0.6,0.64,1.01,0.87c0.41,0.22,0.89,0.33,1.45,0.33c0.57,0,1.06-0.11,1.47-0.33c0.41-0.22,0.75-0.51,1.02-0.87
			c0.27-0.35,0.47-0.75,0.61-1.19c0.13-0.44,0.2-0.87,0.2-1.3c0-0.43-0.07-0.87-0.2-1.3c-0.13-0.44-0.33-0.83-0.61-1.19
			c-0.27-0.35-0.61-0.65-1.02-0.88C1373.64,1406.4,1373.15,1406.28,1372.58,1406.28z"/>
		<path d="M1382.04,1403.07h3.69l1.27,7.45l1.86-5.51h3.36l1.96,5.53l1.15-7.47h3.69l-2.05,13.86h-3.61l-2.84-6.03l-2.82,6.03h-3.61
			L1382.04,1403.07z"/>
		<path d="M1401.99,1416.93v-13.86h10.27c0.78,0,1.44,0.13,1.99,0.4c0.55,0.26,1,0.61,1.36,1.02c0.35,0.42,0.61,0.88,0.77,1.4
			c0.16,0.52,0.24,1.03,0.24,1.54c0,0.52-0.09,1.02-0.26,1.52c-0.17,0.5-0.44,0.95-0.79,1.36c-0.35,0.4-0.81,0.73-1.36,0.98
			c-0.55,0.25-1.2,0.38-1.95,0.38h-6.53v5.26H1401.99z M1405.73,1408.31h6.53c0.19,0,0.35-0.07,0.46-0.2
			c0.11-0.13,0.17-0.32,0.17-0.55v-0.38c0-0.24-0.06-0.42-0.17-0.55c-0.11-0.13-0.26-0.2-0.46-0.2h-6.53V1408.31z"/>
		<path d="M1419.71,1416.93v-13.86h9.64c0.78,0,1.44,0.13,1.99,0.4c0.55,0.26,1,0.61,1.36,1.02c0.35,0.42,0.61,0.88,0.77,1.4
			c0.16,0.52,0.24,1.03,0.24,1.54c0,0.4-0.06,0.81-0.17,1.22c-0.11,0.41-0.28,0.8-0.51,1.17c-0.23,0.37-0.53,0.7-0.9,0.98
			c-0.37,0.29-0.82,0.5-1.35,0.66c0,0.01,0,0.02,0.01,0.02c0.01,0,0.01,0.01,0.01,0.02l3.3,5.43h-4.22l-3.17-5.26h-3.28v5.26
			H1419.71z M1423.45,1408.31h5.91c0.19,0,0.35-0.07,0.46-0.2c0.11-0.13,0.17-0.32,0.17-0.55v-0.38c0-0.24-0.06-0.42-0.17-0.55
			c-0.11-0.13-0.26-0.2-0.46-0.2h-5.91V1408.31z"/>
		<path d="M1443.61,1402.82c1.22,0,2.29,0.22,3.18,0.66c0.9,0.44,1.64,1.01,2.22,1.7c0.58,0.7,1.02,1.47,1.3,2.32
			c0.28,0.85,0.43,1.68,0.43,2.5c0,0.82-0.14,1.66-0.43,2.52c-0.29,0.86-0.72,1.63-1.3,2.32c-0.58,0.69-1.33,1.25-2.22,1.69
			c-0.9,0.44-1.96,0.66-3.18,0.66c-1.21,0-2.26-0.22-3.16-0.66c-0.9-0.44-1.64-1-2.22-1.69c-0.58-0.69-1.02-1.46-1.3-2.32
			c-0.29-0.86-0.43-1.69-0.43-2.52c0-0.82,0.14-1.66,0.43-2.5c0.29-0.85,0.72-1.62,1.3-2.32c0.58-0.7,1.33-1.26,2.22-1.7
			C1441.35,1403.04,1442.4,1402.82,1443.61,1402.82z M1443.61,1406.28c-0.56,0-1.04,0.11-1.45,0.34c-0.41,0.23-0.75,0.52-1.01,0.88
			c-0.26,0.35-0.46,0.75-0.59,1.19c-0.13,0.44-0.2,0.87-0.2,1.3c0,0.43,0.07,0.87,0.2,1.3c0.13,0.44,0.33,0.83,0.59,1.19
			c0.26,0.35,0.6,0.64,1.01,0.87c0.41,0.22,0.89,0.33,1.45,0.33c0.57,0,1.06-0.11,1.47-0.33c0.41-0.22,0.75-0.51,1.02-0.87
			c0.27-0.35,0.47-0.75,0.61-1.19c0.13-0.44,0.2-0.87,0.2-1.3c0-0.43-0.07-0.87-0.2-1.3c-0.13-0.44-0.33-0.83-0.61-1.19
			c-0.27-0.35-0.61-0.65-1.02-0.88C1444.67,1406.4,1444.18,1406.28,1443.61,1406.28z"/>
	</g>
	<g>
		<path d="M1288.61,1414.48v8.9h-14.89c-1.64,0-2.97-1.33-2.97-2.97v-14.89h8.9v6.41c0,1.4,1.14,2.54,2.54,2.54H1288.61z"/>
	</g>
	<g>
		<path d="M1297.51,1414.48h-8.9v-6.41c0-1.4-1.14-2.54-2.54-2.54h-6.41v-8.9h14.89c1.64,0,2.97,1.33,2.97,2.97V1414.48z"/>
	</g>
</g>
<g>
	<g>
		<path d="M1269.75,1643.86h13.62v3.45h-9.78v1.93h9.14v3.45h-9.14v5.41h-3.84V1643.86z"/>
		<path d="M1286.7,1643.86h13.88v3.45h-10.04v1.93h9.4v3.45h-9.4v1.97h10.04v3.43h-13.88V1643.86z"/>
		<path d="M1304.16,1643.86h3.84v10.81h7.72v3.43h-11.56V1643.86z"/>
		<path d="M1318.78,1643.86h3.84v10.81h7.72v3.43h-11.56V1643.86z"/>
		<path d="M1339.42,1643.61c1.26,0,2.35,0.23,3.27,0.68c0.92,0.45,1.68,1.03,2.28,1.75c0.6,0.72,1.05,1.51,1.34,2.38
			c0.29,0.87,0.44,1.73,0.44,2.57c0,0.84-0.15,1.71-0.44,2.58c-0.29,0.88-0.74,1.67-1.34,2.38c-0.6,0.71-1.36,1.29-2.28,1.74
			c-0.92,0.45-2.01,0.68-3.27,0.68c-1.24,0-2.33-0.23-3.25-0.68c-0.92-0.45-1.68-1.03-2.28-1.74c-0.6-0.71-1.05-1.5-1.34-2.38
			c-0.29-0.88-0.44-1.74-0.44-2.58c0-0.84,0.15-1.7,0.44-2.57c0.29-0.87,0.74-1.67,1.34-2.38c0.6-0.71,1.36-1.3,2.28-1.75
			C1337.09,1643.83,1338.18,1643.61,1339.42,1643.61z M1339.42,1647.17c-0.57,0-1.07,0.12-1.49,0.35c-0.42,0.24-0.77,0.54-1.04,0.9
			c-0.27,0.36-0.48,0.77-0.61,1.22c-0.14,0.45-0.2,0.9-0.2,1.34c0,0.44,0.07,0.89,0.2,1.34c0.14,0.45,0.34,0.86,0.61,1.22
			c0.27,0.36,0.62,0.66,1.04,0.89c0.42,0.23,0.92,0.34,1.49,0.34c0.59,0,1.09-0.11,1.51-0.34c0.42-0.23,0.77-0.53,1.05-0.89
			c0.28-0.36,0.49-0.77,0.62-1.22c0.14-0.45,0.2-0.9,0.2-1.34c0-0.44-0.07-0.89-0.2-1.34c-0.14-0.45-0.34-0.86-0.62-1.22
			s-0.63-0.66-1.05-0.9C1340.51,1647.28,1340.01,1647.17,1339.42,1647.17z"/>
		<path d="M1349.14,1643.86h3.8l1.31,7.66l1.91-5.66h3.45l2.02,5.68l1.18-7.68h3.8l-2.1,14.24h-3.71l-2.92-6.2l-2.9,6.2h-3.71
			L1349.14,1643.86z"/>
		<path d="M1369.64,1658.11v-14.24h10.55c0.8,0,1.48,0.14,2.05,0.41c0.56,0.27,1.03,0.62,1.39,1.05c0.36,0.43,0.63,0.91,0.79,1.44
			c0.16,0.53,0.25,1.06,0.25,1.59c0,0.53-0.09,1.05-0.27,1.57c-0.18,0.51-0.45,0.98-0.82,1.39c-0.36,0.41-0.83,0.75-1.39,1.01
			c-0.57,0.26-1.23,0.39-2.01,0.39h-6.71v5.41H1369.64z M1373.48,1649.25h6.71c0.2,0,0.36-0.07,0.47-0.2
			c0.11-0.14,0.17-0.33,0.17-0.57v-0.39c0-0.24-0.06-0.43-0.17-0.57c-0.11-0.14-0.27-0.2-0.47-0.2h-6.71V1649.25z"/>
		<path d="M1387.85,1658.11v-14.24h9.91c0.8,0,1.48,0.14,2.05,0.41c0.56,0.27,1.03,0.62,1.39,1.05c0.36,0.43,0.63,0.91,0.79,1.44
			c0.16,0.53,0.25,1.06,0.25,1.59c0,0.42-0.06,0.83-0.17,1.26c-0.11,0.42-0.29,0.82-0.53,1.2c-0.24,0.38-0.54,0.72-0.92,1.01
			c-0.38,0.29-0.84,0.52-1.38,0.68c0,0.01,0,0.02,0.01,0.02c0.01,0,0.01,0.01,0.01,0.02l3.39,5.58h-4.33l-3.26-5.41h-3.37v5.41
			H1387.85z M1391.69,1649.25h6.07c0.2,0,0.36-0.07,0.47-0.2c0.11-0.14,0.17-0.33,0.17-0.57v-0.39c0-0.24-0.06-0.43-0.17-0.57
			c-0.11-0.14-0.27-0.2-0.47-0.2h-6.07V1649.25z"/>
		<path d="M1412.41,1643.61c1.26,0,2.35,0.23,3.27,0.68c0.92,0.45,1.68,1.03,2.28,1.75c0.6,0.72,1.05,1.51,1.34,2.38
			c0.29,0.87,0.44,1.73,0.44,2.57c0,0.84-0.15,1.71-0.44,2.58c-0.29,0.88-0.74,1.67-1.34,2.38c-0.6,0.71-1.36,1.29-2.28,1.74
			c-0.92,0.45-2.01,0.68-3.27,0.68c-1.24,0-2.33-0.23-3.25-0.68c-0.92-0.45-1.68-1.03-2.28-1.74c-0.6-0.71-1.05-1.5-1.34-2.38
			c-0.29-0.88-0.44-1.74-0.44-2.58c0-0.84,0.15-1.7,0.44-2.57c0.29-0.87,0.74-1.67,1.34-2.38c0.6-0.71,1.36-1.3,2.28-1.75
			C1410.09,1643.83,1411.17,1643.61,1412.41,1643.61z M1412.41,1647.17c-0.57,0-1.07,0.12-1.49,0.35c-0.42,0.24-0.77,0.54-1.04,0.9
			c-0.27,0.36-0.48,0.77-0.61,1.22c-0.14,0.45-0.2,0.9-0.2,1.34c0,0.44,0.07,0.89,0.2,1.34c0.14,0.45,0.34,0.86,0.61,1.22
			c0.27,0.36,0.62,0.66,1.04,0.89c0.42,0.23,0.92,0.34,1.49,0.34c0.59,0,1.09-0.11,1.51-0.34c0.42-0.23,0.77-0.53,1.05-0.89
			c0.28-0.36,0.49-0.77,0.62-1.22c0.14-0.45,0.2-0.9,0.2-1.34c0-0.44-0.07-0.89-0.2-1.34c-0.14-0.45-0.34-0.86-0.62-1.22
			c-0.28-0.36-0.63-0.66-1.05-0.9C1413.5,1647.28,1413,1647.17,1412.41,1647.17z"/>
	</g>
	<g>
		<g>
			<path d="M1349.35,1625.99v9.15h-15.3c-1.68,0-3.05-1.36-3.05-3.05v-15.3h9.15v6.59c0,1.44,1.17,2.61,2.61,2.61H1349.35z"/>
		</g>
		<g>
			<path d="M1358.5,1625.99h-9.15v-6.59c0-1.44-1.17-2.61-2.61-2.61h-6.59v-9.15h15.3c1.68,0,3.05,1.36,3.05,3.05V1625.99z"/>
		</g>
	</g>
</g>
<g>
	<g>
		<path d="M1545,1621.73h27.24v6.91h-19.56v3.86h18.28v6.91h-18.28v10.81H1545V1621.73z"/>
		<path d="M1578.89,1621.73h27.76v6.91h-20.08v3.86h18.79v6.91h-18.79v3.95h20.08v6.86h-27.76V1621.73z"/>
		<path d="M1613.81,1621.73h7.68v21.62h15.44v6.86h-23.12V1621.73z"/>
		<path d="M1643.07,1621.73h7.68v21.62h15.44v6.86h-23.12V1621.73z"/>
		<path d="M1684.34,1621.21c2.52,0,4.7,0.45,6.54,1.35s3.37,2.07,4.57,3.5c1.2,1.43,2.09,3.02,2.68,4.76
			c0.59,1.74,0.88,3.46,0.88,5.15c0,1.69-0.29,3.41-0.88,5.17c-0.59,1.76-1.48,3.35-2.68,4.76c-1.2,1.42-2.72,2.57-4.57,3.47
			s-4.03,1.35-6.54,1.35c-2.49,0-4.65-0.45-6.5-1.35c-1.84-0.9-3.37-2.06-4.57-3.47c-1.2-1.42-2.1-3-2.68-4.76
			c-0.59-1.76-0.88-3.48-0.88-5.17c0-1.69,0.29-3.4,0.88-5.15c0.59-1.74,1.48-3.33,2.68-4.76c1.2-1.43,2.72-2.6,4.57-3.5
			C1679.68,1621.66,1681.85,1621.21,1684.34,1621.21z M1684.34,1628.33c-1.14,0-2.14,0.24-2.98,0.71c-0.84,0.47-1.54,1.07-2.08,1.8
			c-0.54,0.73-0.95,1.54-1.22,2.45c-0.27,0.9-0.41,1.8-0.41,2.68c0,0.89,0.14,1.78,0.41,2.68c0.27,0.9,0.68,1.72,1.22,2.45
			c0.54,0.73,1.24,1.32,2.08,1.78c0.84,0.46,1.84,0.69,2.98,0.69c1.17,0,2.18-0.23,3.02-0.69c0.84-0.46,1.54-1.05,2.1-1.78
			c0.56-0.73,0.97-1.54,1.24-2.45c0.27-0.9,0.41-1.79,0.41-2.68c0-0.89-0.14-1.78-0.41-2.68c-0.27-0.9-0.69-1.72-1.24-2.45
			c-0.56-0.73-1.26-1.33-2.1-1.8C1686.52,1628.57,1685.51,1628.33,1684.34,1628.33z"/>
		<path d="M1703.77,1621.73h7.59l2.62,15.32l3.82-11.33h6.91l4.03,11.37l2.36-15.36h7.59l-4.2,28.49h-7.42l-5.83-12.4l-5.79,12.4
			h-7.42L1703.77,1621.73z"/>
		<path d="M1744.79,1650.21v-28.49h21.11c1.6,0,2.97,0.27,4.1,0.82c1.13,0.54,2.06,1.24,2.79,2.1c0.73,0.86,1.26,1.82,1.59,2.87
			c0.33,1.06,0.49,2.12,0.49,3.17c0,1.06-0.18,2.1-0.54,3.13c-0.36,1.03-0.9,1.96-1.63,2.79c-0.73,0.83-1.66,1.5-2.79,2.02
			c-1.13,0.51-2.47,0.77-4.01,0.77h-13.43v10.81H1744.79z M1752.46,1632.49h13.43c0.4,0,0.71-0.14,0.94-0.41
			c0.23-0.27,0.34-0.65,0.34-1.14v-0.77c0-0.49-0.11-0.86-0.34-1.14c-0.23-0.27-0.54-0.41-0.94-0.41h-13.43V1632.49z"/>
		<path d="M1781.21,1650.21v-28.49h19.82c1.6,0,2.97,0.27,4.1,0.82c1.13,0.54,2.06,1.24,2.79,2.1c0.73,0.86,1.26,1.82,1.59,2.87
			c0.33,1.06,0.49,2.12,0.49,3.17c0,0.83-0.11,1.67-0.34,2.51c-0.23,0.84-0.58,1.64-1.05,2.4c-0.47,0.76-1.09,1.43-1.84,2.02
			c-0.76,0.59-1.68,1.04-2.77,1.35c0,0.03,0.01,0.04,0.02,0.04c0.01,0,0.02,0.01,0.02,0.04l6.78,11.15h-8.67l-6.52-10.81h-6.74
			v10.81H1781.21z M1788.89,1632.49h12.14c0.4,0,0.71-0.14,0.94-0.41c0.23-0.27,0.34-0.65,0.34-1.14v-0.77
			c0-0.49-0.11-0.86-0.34-1.14c-0.23-0.27-0.54-0.41-0.94-0.41h-12.14V1632.49z"/>
		<path d="M1830.33,1621.21c2.52,0,4.7,0.45,6.54,1.35s3.37,2.07,4.57,3.5c1.2,1.43,2.09,3.02,2.68,4.76
			c0.59,1.74,0.88,3.46,0.88,5.15c0,1.69-0.29,3.41-0.88,5.17c-0.59,1.76-1.48,3.35-2.68,4.76c-1.2,1.42-2.72,2.57-4.57,3.47
			s-4.03,1.35-6.54,1.35c-2.49,0-4.65-0.45-6.5-1.35c-1.84-0.9-3.37-2.06-4.57-3.47c-1.2-1.42-2.1-3-2.68-4.76
			c-0.59-1.76-0.88-3.48-0.88-5.17c0-1.69,0.29-3.4,0.88-5.15c0.59-1.74,1.48-3.33,2.68-4.76c1.2-1.43,2.72-2.6,4.57-3.5
			C1825.67,1621.66,1827.84,1621.21,1830.33,1621.21z M1830.33,1628.33c-1.14,0-2.14,0.24-2.98,0.71c-0.84,0.47-1.54,1.07-2.08,1.8
			c-0.54,0.73-0.95,1.54-1.22,2.45c-0.27,0.9-0.41,1.8-0.41,2.68c0,0.89,0.14,1.78,0.41,2.68c0.27,0.9,0.68,1.72,1.22,2.45
			c0.54,0.73,1.24,1.32,2.08,1.78c0.84,0.46,1.84,0.69,2.98,0.69c1.17,0,2.18-0.23,3.02-0.69c0.84-0.46,1.54-1.05,2.1-1.78
			c0.56-0.73,0.97-1.54,1.24-2.45c0.27-0.9,0.41-1.79,0.41-2.68c0-0.89-0.14-1.78-0.41-2.68c-0.27-0.9-0.69-1.72-1.24-2.45
			c-0.56-0.73-1.26-1.33-2.1-1.8C1832.51,1628.57,1831.5,1628.33,1830.33,1628.33z"/>
	</g>
	<g>
		<g>
			<path d="M1704.2,1585.98v18.3h-30.61c-3.37,0-6.1-2.73-6.1-6.1v-30.61h18.3v13.19c0,2.88,2.34,5.22,5.22,5.22H1704.2z"/>
		</g>
		<g>
			<path d="M1722.5,1585.98h-18.3v-13.19c0-2.88-2.34-5.22-5.22-5.22h-13.19v-18.3h30.61c3.37,0,6.1,2.73,6.1,6.1V1585.98z"/>
		</g>
	</g>
</g>
<g>
	<g>
		<path d="M2187,1709.45h54.48v13.81h-39.13v7.72h36.55v13.81h-36.55v21.62H2187V1709.45z"/>
		<path d="M2254.78,1709.45h55.51v13.81h-40.15v7.72h37.58v13.81h-37.58v7.89h40.15v13.73h-55.51V1709.45z"/>
		<path d="M2324.62,1709.45h15.36v43.24h30.89v13.73h-46.25V1709.45z"/>
		<path d="M2383.14,1709.45h15.36v43.24h30.89v13.73h-46.25V1709.45z"/>
		<path d="M2465.68,1708.42c5.03,0,9.4,0.9,13.08,2.7s6.73,4.13,9.14,6.99c2.4,2.86,4.19,6.04,5.36,9.52
			c1.17,3.49,1.76,6.92,1.76,10.3c0,3.38-0.59,6.82-1.76,10.34c-1.17,3.52-2.96,6.69-5.36,9.52c-2.4,2.83-5.45,5.15-9.14,6.95
			c-3.69,1.8-8.05,2.7-13.08,2.7c-4.98,0-9.31-0.9-13-2.7c-3.69-1.8-6.74-4.12-9.14-6.95c-2.4-2.83-4.19-6.01-5.36-9.52
			c-1.17-3.52-1.76-6.96-1.76-10.34c0-3.37,0.59-6.81,1.76-10.3c1.17-3.49,2.96-6.66,5.36-9.52c2.4-2.86,5.45-5.19,9.14-6.99
			C2456.37,1709.32,2460.7,1708.42,2465.68,1708.42z M2465.68,1722.66c-2.29,0-4.28,0.47-5.96,1.42c-1.69,0.94-3.08,2.15-4.16,3.6
			c-1.09,1.46-1.9,3.09-2.45,4.89c-0.54,1.8-0.82,3.59-0.82,5.36c0,1.77,0.27,3.56,0.82,5.36c0.54,1.8,1.36,3.43,2.45,4.89
			c1.09,1.46,2.47,2.65,4.16,3.56c1.69,0.92,3.67,1.37,5.96,1.37c2.34,0,4.36-0.46,6.05-1.37c1.69-0.91,3.09-2.1,4.2-3.56
			c1.12-1.46,1.94-3.09,2.49-4.89c0.54-1.8,0.82-3.59,0.82-5.36c0-1.77-0.27-3.56-0.82-5.36c-0.54-1.8-1.37-3.43-2.49-4.89
			c-1.12-1.46-2.52-2.66-4.2-3.6C2470.04,1723.14,2468.02,1722.66,2465.68,1722.66z"/>
		<path d="M2504.55,1709.45h15.19l5.23,30.63l7.64-22.65h13.81l8.07,22.74l4.72-30.72h15.19l-8.41,56.97h-14.84l-11.67-24.8
			l-11.58,24.8h-14.84L2504.55,1709.45z"/>
		<path d="M2586.57,1766.42v-56.97h42.21c3.2,0,5.93,0.54,8.19,1.63c2.26,1.09,4.12,2.49,5.58,4.2c1.46,1.72,2.52,3.63,3.17,5.75
			c0.66,2.12,0.99,4.23,0.99,6.35c0,2.12-0.36,4.2-1.07,6.26c-0.72,2.06-1.8,3.92-3.26,5.58c-1.46,1.66-3.32,3-5.58,4.03
			c-2.26,1.03-4.93,1.54-8.02,1.54h-26.86v21.62H2586.57z M2601.93,1730.99h26.86c0.8,0,1.43-0.27,1.89-0.82
			c0.46-0.54,0.69-1.3,0.69-2.27v-1.54c0-0.97-0.23-1.73-0.69-2.27c-0.46-0.54-1.09-0.81-1.89-0.81h-26.86V1730.99z"/>
		<path d="M2659.41,1766.42v-56.97h39.64c3.2,0,5.93,0.54,8.19,1.63c2.26,1.09,4.12,2.49,5.58,4.2c1.46,1.72,2.52,3.63,3.17,5.75
			c0.66,2.12,0.99,4.23,0.99,6.35c0,1.66-0.23,3.33-0.69,5.02c-0.46,1.69-1.16,3.29-2.1,4.8c-0.94,1.52-2.17,2.86-3.69,4.03
			c-1.52,1.17-3.36,2.07-5.53,2.7c0,0.06,0.01,0.09,0.04,0.09c0.03,0,0.04,0.03,0.04,0.09l13.56,22.31h-17.33l-13.04-21.62h-13.47
			v21.62H2659.41z M2674.77,1730.99h24.28c0.8,0,1.43-0.27,1.89-0.82c0.46-0.54,0.69-1.3,0.69-2.27v-1.54
			c0-0.97-0.23-1.73-0.69-2.27c-0.46-0.54-1.09-0.81-1.89-0.81h-24.28V1730.99z"/>
		<path d="M2757.66,1708.42c5.03,0,9.4,0.9,13.08,2.7s6.73,4.13,9.14,6.99c2.4,2.86,4.19,6.04,5.36,9.52
			c1.17,3.49,1.76,6.92,1.76,10.3c0,3.38-0.59,6.82-1.76,10.34c-1.17,3.52-2.96,6.69-5.36,9.52c-2.4,2.83-5.45,5.15-9.14,6.95
			c-3.69,1.8-8.05,2.7-13.08,2.7c-4.98,0-9.31-0.9-13-2.7c-3.69-1.8-6.74-4.12-9.14-6.95c-2.4-2.83-4.19-6.01-5.36-9.52
			c-1.17-3.52-1.76-6.96-1.76-10.34c0-3.37,0.59-6.81,1.76-10.3c1.17-3.49,2.96-6.66,5.36-9.52c2.4-2.86,5.45-5.19,9.14-6.99
			C2748.35,1709.32,2752.68,1708.42,2757.66,1708.42z M2757.66,1722.66c-2.29,0-4.28,0.47-5.96,1.42c-1.69,0.94-3.08,2.15-4.16,3.6
			c-1.09,1.46-1.9,3.09-2.44,4.89c-0.54,1.8-0.82,3.59-0.82,5.36c0,1.77,0.27,3.56,0.82,5.36c0.54,1.8,1.36,3.43,2.44,4.89
			c1.09,1.46,2.47,2.65,4.16,3.56c1.69,0.92,3.67,1.37,5.96,1.37c2.35,0,4.36-0.46,6.05-1.37c1.69-0.91,3.09-2.1,4.2-3.56
			c1.12-1.46,1.94-3.09,2.49-4.89c0.54-1.8,0.82-3.59,0.82-5.36c0-1.77-0.27-3.56-0.82-5.36c-0.54-1.8-1.37-3.43-2.49-4.89
			c-1.12-1.46-2.52-2.66-4.2-3.6C2762.02,1723.14,2760,1722.66,2757.66,1722.66z"/>
	</g>
	<g>
		<g>
			<path d="M2505.41,1637.95v36.59h-61.21c-6.73,0-12.19-5.46-12.19-12.19v-61.21h36.59v26.37c0,5.77,4.68,10.44,10.44,10.44
				H2505.41z"/>
		</g>
		<g>
			<path d="M2542,1637.95h-36.59v-26.37c0-5.77-4.68-10.44-10.44-10.44h-26.37v-36.59h61.21c6.73,0,12.19,5.46,12.19,12.19V1637.95z
				"/>
		</g>
	</g>
</g>
<g>
	<g>
		<path class="st0" d="M311.29,1279.2h58.91v14.94h-42.3v8.35h39.52v14.94H327.9v23.38h-16.61V1279.2z"/>
		<path class="st0" d="M384.58,1279.2h60.02v14.94h-43.41v8.35h40.63v14.94h-40.63v8.53h43.41v14.84h-60.02V1279.2z"/>
		<path class="st0" d="M460.09,1279.2h16.61v46.75h33.4v14.84h-50V1279.2z"/>
		<path class="st0" d="M523.35,1279.2h16.61v46.75h33.4v14.84h-50V1279.2z"/>
		<path class="st0" d="M612.59,1278.09c5.44,0,10.16,0.97,14.15,2.92c3.99,1.95,7.28,4.47,9.88,7.56c2.6,3.09,4.53,6.53,5.8,10.3
			c1.27,3.77,1.9,7.48,1.9,11.13c0,3.65-0.63,7.38-1.9,11.18c-1.27,3.8-3.2,7.24-5.8,10.3c-2.6,3.06-5.89,5.57-9.88,7.51
			c-3.99,1.95-8.71,2.92-14.15,2.92c-5.38,0-10.07-0.97-14.05-2.92c-3.99-1.95-7.28-4.45-9.88-7.51c-2.6-3.06-4.53-6.49-5.8-10.3
			c-1.27-3.8-1.9-7.53-1.9-11.18c0-3.65,0.63-7.36,1.9-11.13c1.27-3.77,3.2-7.2,5.8-10.3c2.6-3.09,5.89-5.61,9.88-7.56
			C602.53,1279.06,607.21,1278.09,612.59,1278.09z M612.59,1293.49c-2.47,0-4.62,0.51-6.45,1.53c-1.83,1.02-3.33,2.32-4.5,3.9
			c-1.18,1.58-2.06,3.34-2.64,5.29c-0.59,1.95-0.88,3.88-0.88,5.8c0,1.92,0.29,3.85,0.88,5.8c0.59,1.95,1.47,3.71,2.64,5.29
			c1.17,1.58,2.67,2.86,4.5,3.85c1.82,0.99,3.97,1.48,6.45,1.48c2.54,0,4.72-0.49,6.54-1.48c1.82-0.99,3.34-2.27,4.55-3.85
			c1.21-1.58,2.1-3.34,2.69-5.29c0.59-1.95,0.88-3.88,0.88-5.8c0-1.92-0.29-3.85-0.88-5.8c-0.59-1.95-1.48-3.71-2.69-5.29
			c-1.21-1.58-2.72-2.88-4.55-3.9C617.31,1294,615.13,1293.49,612.59,1293.49z"/>
		<path class="st0" d="M654.62,1279.2h16.42l5.66,33.12l8.26-24.49h14.94l8.72,24.58l5.1-33.21h16.42l-9.09,61.6h-16.05
			l-12.62-26.81l-12.52,26.81H663.8L654.62,1279.2z"/>
		<path class="st0" d="M743.3,1340.8v-61.6h45.64c3.46,0,6.42,0.59,8.86,1.76c2.44,1.18,4.45,2.69,6.03,4.55
			c1.58,1.85,2.72,3.93,3.43,6.21c0.71,2.29,1.07,4.58,1.07,6.86c0,2.29-0.39,4.55-1.16,6.77c-0.77,2.23-1.95,4.24-3.53,6.03
			c-1.58,1.79-3.59,3.25-6.03,4.36c-2.44,1.11-5.33,1.67-8.67,1.67H759.9v23.38H743.3z M759.9,1302.49h29.04
			c0.87,0,1.54-0.29,2.04-0.88c0.49-0.59,0.74-1.41,0.74-2.46v-1.67c0-1.05-0.25-1.87-0.74-2.46c-0.5-0.59-1.18-0.88-2.04-0.88
			H759.9V1302.49z"/>
		<path class="st0" d="M822.06,1340.8v-61.6h42.86c3.46,0,6.42,0.59,8.86,1.76c2.44,1.18,4.45,2.69,6.03,4.55
			c1.58,1.85,2.72,3.93,3.43,6.21c0.71,2.29,1.07,4.58,1.07,6.86c0,1.8-0.25,3.6-0.74,5.43c-0.5,1.82-1.25,3.56-2.27,5.19
			c-1.02,1.64-2.35,3.09-3.99,4.36c-1.64,1.27-3.63,2.24-5.98,2.92c0,0.06,0.01,0.09,0.05,0.09c0.03,0,0.05,0.03,0.05,0.09
			l14.66,24.12h-18.74l-14.1-23.38h-14.56v23.38H822.06z M838.66,1302.49h26.25c0.87,0,1.54-0.29,2.04-0.88
			c0.49-0.59,0.74-1.41,0.74-2.46v-1.67c0-1.05-0.25-1.87-0.74-2.46c-0.5-0.59-1.18-0.88-2.04-0.88h-26.25V1302.49z"/>
		<path class="st0" d="M928.27,1278.09c5.44,0,10.16,0.97,14.15,2.92c3.99,1.95,7.28,4.47,9.88,7.56c2.6,3.09,4.53,6.53,5.8,10.3
			c1.27,3.77,1.9,7.48,1.9,11.13c0,3.65-0.63,7.38-1.9,11.18c-1.27,3.8-3.2,7.24-5.8,10.3c-2.6,3.06-5.89,5.57-9.88,7.51
			c-3.99,1.95-8.71,2.92-14.15,2.92c-5.38,0-10.07-0.97-14.05-2.92c-3.99-1.95-7.28-4.45-9.88-7.51c-2.6-3.06-4.53-6.49-5.8-10.3
			c-1.27-3.8-1.9-7.53-1.9-11.18c0-3.65,0.63-7.36,1.9-11.13c1.27-3.77,3.2-7.2,5.8-10.3c2.6-3.09,5.89-5.61,9.88-7.56
			C918.21,1279.06,922.89,1278.09,928.27,1278.09z M928.27,1293.49c-2.47,0-4.62,0.51-6.45,1.53c-1.83,1.02-3.33,2.32-4.5,3.9
			c-1.18,1.58-2.06,3.34-2.64,5.29c-0.59,1.95-0.88,3.88-0.88,5.8c0,1.92,0.29,3.85,0.88,5.8c0.59,1.95,1.47,3.71,2.64,5.29
			c1.17,1.58,2.67,2.86,4.5,3.85c1.82,0.99,3.97,1.48,6.45,1.48c2.54,0,4.72-0.49,6.54-1.48c1.82-0.99,3.34-2.27,4.55-3.85
			c1.21-1.58,2.1-3.34,2.69-5.29c0.59-1.95,0.88-3.88,0.88-5.8c0-1.92-0.29-3.85-0.88-5.8c-0.59-1.95-1.48-3.71-2.69-5.29
			c-1.21-1.58-2.72-2.88-4.55-3.9C932.99,1294,930.81,1293.49,928.27,1293.49z"/>
	</g>
	<g>
		<path class="st0" d="M239.37,1329.9v39.56h-66.18c-7.28,0-13.18-5.9-13.18-13.18v-66.18h39.56v28.51
			c0,6.24,5.05,11.29,11.29,11.29H239.37z"/>
	</g>
	<g>
		<path class="st0" d="M278.93,1329.9h-39.56v-28.51c0-6.24-5.05-11.29-11.29-11.29h-28.51v-39.56h66.18
			c7.28,0,13.18,5.9,13.18,13.18V1329.9z"/>
	</g>
</g>
<g>
	<g>
		<g>
			<path class="st0" d="M-290.77,880.09v99.8h-166.94c-18.37,0-33.26-14.89-33.26-33.26V779.69h99.8v71.92
				c0,15.73,12.75,28.48,28.48,28.48H-290.77z"/>
		</g>
	</g>
	<g>
		<g>
			<path class="st0" d="M-190.97,880.09h-99.8v-71.92c0-15.73-12.75-28.48-28.48-28.48h-71.92v-99.8h166.94
				c18.37,0,33.26,14.89,33.26,33.26V880.09z"/>
		</g>
	</g>
</g>
<g>
	<g>
		<g>
			<path class="st0" d="M657.16,657.1v232.87H267.63c-42.86,0-77.6-34.74-77.6-77.6V422.84H422.9v167.81
				c0,36.7,29.75,66.45,66.45,66.45H657.16z"/>
		</g>
	</g>
	<g>
		<g>
			<path class="st0" d="M890.03,657.1H657.16V489.29c0-36.7-29.75-66.45-66.45-66.45H422.9V189.97h389.53
				c42.86,0,77.6,34.74,77.6,77.6V657.1z"/>
		</g>
	</g>
</g>
<g>
	<g>
		<g>
			<path class="st0" d="M-740.59,1000.06v39.92h-66.78c-7.35,0-13.3-5.96-13.3-13.3V959.9h39.92v28.77c0,6.29,5.1,11.39,11.39,11.39
				H-740.59z"/>
		</g>
	</g>
	<g>
		<g>
			<path class="st0" d="M-700.67,1000.06h-39.92v-28.77c0-6.29-5.1-11.39-11.39-11.39h-28.77v-39.92h66.78
				c7.35,0,13.3,5.96,13.3,13.3V1000.06z"/>
		</g>
	</g>
</g>
<g>
	<g>
		<path class="st0" d="M-460.02,1360.58h29.45v7.47h-21.15v4.17h19.76v7.47h-19.76v11.69h-8.3V1360.58z"/>
		<path class="st0" d="M-423.38,1360.58h30.01v7.47h-21.71v4.17h20.32v7.47h-20.32v4.27h21.71v7.42h-30.01V1360.58z"/>
		<path class="st0" d="M-385.63,1360.58h8.3v23.38h16.7v7.42h-25V1360.58z"/>
		<path class="st0" d="M-353.99,1360.58h8.3v23.38h16.7v7.42h-25V1360.58z"/>
		<path class="st0" d="M-309.37,1360.03c2.72,0,5.08,0.49,7.07,1.46c1.99,0.97,3.64,2.23,4.94,3.78c1.3,1.55,2.26,3.26,2.9,5.15
			c0.63,1.89,0.95,3.74,0.95,5.57c0,1.82-0.32,3.69-0.95,5.59c-0.63,1.9-1.6,3.62-2.9,5.15c-1.3,1.53-2.95,2.78-4.94,3.76
			c-1.99,0.97-4.35,1.46-7.07,1.46c-2.69,0-5.03-0.49-7.03-1.46c-1.99-0.97-3.64-2.23-4.94-3.76c-1.3-1.53-2.27-3.25-2.9-5.15
			c-0.63-1.9-0.95-3.76-0.95-5.59c0-1.82,0.32-3.68,0.95-5.57c0.63-1.89,1.6-3.6,2.9-5.15c1.3-1.55,2.95-2.81,4.94-3.78
			C-314.4,1360.51-312.06,1360.03-309.37,1360.03z M-309.37,1367.73c-1.24,0-2.31,0.26-3.22,0.77c-0.91,0.51-1.66,1.16-2.25,1.95
			c-0.59,0.79-1.03,1.67-1.32,2.64c-0.29,0.97-0.44,1.94-0.44,2.9c0,0.96,0.15,1.92,0.44,2.9c0.29,0.97,0.73,1.86,1.32,2.64
			c0.59,0.79,1.34,1.43,2.25,1.93c0.91,0.49,1.99,0.74,3.22,0.74c1.27,0,2.36-0.25,3.27-0.74c0.91-0.49,1.67-1.14,2.27-1.93
			c0.6-0.79,1.05-1.67,1.35-2.64c0.29-0.97,0.44-1.94,0.44-2.9c0-0.96-0.15-1.92-0.44-2.9c-0.29-0.97-0.74-1.86-1.35-2.64
			c-0.6-0.79-1.36-1.44-2.27-1.95C-307.01,1367.98-308.1,1367.73-309.37,1367.73z"/>
		<path class="st0" d="M-288.36,1360.58h8.21l2.83,16.56l4.13-12.25h7.47l4.36,12.29l2.55-16.6h8.21l-4.55,30.8h-8.02l-6.31-13.4
			l-6.26,13.4h-8.02L-288.36,1360.58z"/>
		<path class="st0" d="M-244.02,1391.38v-30.8h22.82c1.73,0,3.21,0.29,4.43,0.88c1.22,0.59,2.23,1.35,3.01,2.27
			c0.79,0.93,1.36,1.96,1.72,3.11c0.36,1.14,0.53,2.29,0.53,3.43c0,1.14-0.19,2.27-0.58,3.39c-0.39,1.11-0.97,2.12-1.76,3.01
			c-0.79,0.9-1.79,1.62-3.01,2.18c-1.22,0.56-2.67,0.84-4.34,0.84h-14.52v11.69H-244.02z M-235.72,1372.22h14.52
			c0.43,0,0.77-0.15,1.02-0.44c0.25-0.29,0.37-0.7,0.37-1.23v-0.83c0-0.53-0.12-0.93-0.37-1.23c-0.25-0.29-0.59-0.44-1.02-0.44
			h-14.52V1372.22z"/>
		<path class="st0" d="M-204.64,1391.38v-30.8h21.43c1.73,0,3.21,0.29,4.43,0.88c1.22,0.59,2.23,1.35,3.01,2.27
			c0.79,0.93,1.36,1.96,1.72,3.11c0.35,1.14,0.53,2.29,0.53,3.43c0,0.9-0.12,1.8-0.37,2.71c-0.25,0.91-0.63,1.78-1.14,2.6
			c-0.51,0.82-1.18,1.55-1.99,2.18c-0.82,0.63-1.82,1.12-2.99,1.46c0,0.03,0.01,0.05,0.02,0.05c0.02,0,0.02,0.02,0.02,0.05
			l7.33,12.06H-182l-7.05-11.69h-7.28v11.69H-204.64z M-196.34,1372.22h13.13c0.43,0,0.77-0.15,1.02-0.44
			c0.25-0.29,0.37-0.7,0.37-1.23v-0.83c0-0.53-0.12-0.93-0.37-1.23c-0.25-0.29-0.59-0.44-1.02-0.44h-13.13V1372.22z"/>
		<path class="st0" d="M-151.53,1360.03c2.72,0,5.08,0.49,7.07,1.46c1.99,0.97,3.64,2.23,4.94,3.78c1.3,1.55,2.26,3.26,2.9,5.15
			c0.63,1.89,0.95,3.74,0.95,5.57c0,1.82-0.32,3.69-0.95,5.59c-0.63,1.9-1.6,3.62-2.9,5.15c-1.3,1.53-2.95,2.78-4.94,3.76
			c-1.99,0.97-4.35,1.46-7.07,1.46c-2.69,0-5.03-0.49-7.03-1.46c-1.99-0.97-3.64-2.23-4.94-3.76c-1.3-1.53-2.27-3.25-2.9-5.15
			c-0.63-1.9-0.95-3.76-0.95-5.59c0-1.82,0.32-3.68,0.95-5.57c0.63-1.89,1.6-3.6,2.9-5.15c1.3-1.55,2.95-2.81,4.94-3.78
			C-156.56,1360.51-154.22,1360.03-151.53,1360.03z M-151.53,1367.73c-1.24,0-2.31,0.26-3.22,0.77c-0.91,0.51-1.66,1.16-2.25,1.95
			c-0.59,0.79-1.03,1.67-1.32,2.64c-0.29,0.97-0.44,1.94-0.44,2.9c0,0.96,0.15,1.92,0.44,2.9c0.29,0.97,0.73,1.86,1.32,2.64
			c0.59,0.79,1.34,1.43,2.25,1.93c0.91,0.49,1.99,0.74,3.22,0.74c1.27,0,2.36-0.25,3.27-0.74c0.91-0.49,1.67-1.14,2.27-1.93
			c0.6-0.79,1.05-1.67,1.35-2.64c0.29-0.97,0.44-1.94,0.44-2.9c0-0.96-0.15-1.92-0.44-2.9c-0.29-0.97-0.74-1.86-1.35-2.64
			c-0.6-0.79-1.36-1.44-2.27-1.95C-149.17,1367.98-150.26,1367.73-151.53,1367.73z"/>
	</g>
	<g>
		<path class="st0" d="M-495.99,1385.93v19.78h-33.09c-3.64,0-6.59-2.95-6.59-6.59v-33.09h19.78v14.26c0,3.12,2.53,5.65,5.65,5.65
			H-495.99z"/>
	</g>
	<g>
		<path class="st0" d="M-476.2,1385.93h-19.78v-14.26c0-3.12-2.53-5.65-5.65-5.65h-14.26v-19.78h33.09c3.64,0,6.59,2.95,6.59,6.59
			V1385.93z"/>
	</g>
</g>
<g>
	<g>
		<path class="st0" d="M-816.21,1402.07h13.25v3.36h-9.52v1.88h8.89v3.36h-8.89v5.26h-3.74V1402.07z"/>
		<path class="st0" d="M-799.72,1402.07h13.5v3.36h-9.77v1.88h9.14v3.36h-9.14v1.92h9.77v3.34h-13.5V1402.07z"/>
		<path class="st0" d="M-782.73,1402.07h3.74v10.52h7.51v3.34h-11.25V1402.07z"/>
		<path class="st0" d="M-768.5,1402.07h3.74v10.52h7.51v3.34h-11.25V1402.07z"/>
		<path class="st0" d="M-748.42,1401.82c1.22,0,2.29,0.22,3.18,0.66c0.9,0.44,1.64,1.01,2.22,1.7c0.58,0.7,1.02,1.47,1.3,2.32
			c0.28,0.85,0.43,1.68,0.43,2.5c0,0.82-0.14,1.66-0.43,2.52c-0.29,0.86-0.72,1.63-1.3,2.32c-0.58,0.69-1.33,1.25-2.22,1.69
			c-0.9,0.44-1.96,0.66-3.18,0.66c-1.21,0-2.26-0.22-3.16-0.66c-0.9-0.44-1.64-1-2.22-1.69c-0.58-0.69-1.02-1.46-1.3-2.32
			c-0.29-0.86-0.43-1.69-0.43-2.52c0-0.82,0.14-1.66,0.43-2.5c0.29-0.85,0.72-1.62,1.3-2.32c0.58-0.7,1.33-1.26,2.22-1.7
			C-750.68,1402.04-749.63,1401.82-748.42,1401.82z M-748.42,1405.28c-0.56,0-1.04,0.11-1.45,0.34c-0.41,0.23-0.75,0.52-1.01,0.88
			c-0.26,0.35-0.46,0.75-0.59,1.19c-0.13,0.44-0.2,0.87-0.2,1.3c0,0.43,0.07,0.87,0.2,1.3c0.13,0.44,0.33,0.83,0.59,1.19
			c0.26,0.35,0.6,0.64,1.01,0.87c0.41,0.22,0.89,0.33,1.45,0.33c0.57,0,1.06-0.11,1.47-0.33c0.41-0.22,0.75-0.51,1.02-0.87
			c0.27-0.35,0.47-0.75,0.61-1.19c0.13-0.44,0.2-0.87,0.2-1.3c0-0.43-0.07-0.87-0.2-1.3c-0.13-0.44-0.33-0.83-0.61-1.19
			c-0.27-0.35-0.61-0.65-1.02-0.88C-747.36,1405.4-747.85,1405.28-748.42,1405.28z"/>
		<path class="st0" d="M-738.96,1402.07h3.69l1.27,7.45l1.86-5.51h3.36l1.96,5.53l1.15-7.47h3.69l-2.05,13.86h-3.61l-2.84-6.03
			l-2.82,6.03h-3.61L-738.96,1402.07z"/>
		<path class="st0" d="M-719.01,1415.93v-13.86h10.27c0.78,0,1.44,0.13,1.99,0.4c0.55,0.26,1,0.61,1.36,1.02
			c0.35,0.42,0.61,0.88,0.77,1.4c0.16,0.52,0.24,1.03,0.24,1.54c0,0.52-0.09,1.02-0.26,1.52c-0.17,0.5-0.44,0.95-0.79,1.36
			c-0.35,0.4-0.81,0.73-1.36,0.98c-0.55,0.25-1.2,0.38-1.95,0.38h-6.53v5.26H-719.01z M-715.27,1407.31h6.53
			c0.19,0,0.35-0.07,0.46-0.2c0.11-0.13,0.17-0.32,0.17-0.55v-0.38c0-0.24-0.06-0.42-0.17-0.55c-0.11-0.13-0.26-0.2-0.46-0.2h-6.53
			V1407.31z"/>
		<path class="st0" d="M-701.29,1415.93v-13.86h9.64c0.78,0,1.44,0.13,1.99,0.4c0.55,0.26,1,0.61,1.36,1.02
			c0.35,0.42,0.61,0.88,0.77,1.4c0.16,0.52,0.24,1.03,0.24,1.54c0,0.4-0.06,0.81-0.17,1.22c-0.11,0.41-0.28,0.8-0.51,1.17
			c-0.23,0.37-0.53,0.7-0.9,0.98c-0.37,0.29-0.82,0.5-1.35,0.66c0,0.01,0,0.02,0.01,0.02c0.01,0,0.01,0.01,0.01,0.02l3.3,5.43h-4.22
			l-3.17-5.26h-3.28v5.26H-701.29z M-697.55,1407.31h5.91c0.19,0,0.35-0.07,0.46-0.2c0.11-0.13,0.17-0.32,0.17-0.55v-0.38
			c0-0.24-0.06-0.42-0.17-0.55c-0.11-0.13-0.26-0.2-0.46-0.2h-5.91V1407.31z"/>
		<path class="st0" d="M-677.39,1401.82c1.22,0,2.29,0.22,3.18,0.66s1.64,1.01,2.22,1.7c0.58,0.7,1.02,1.47,1.3,2.32
			c0.28,0.85,0.43,1.68,0.43,2.5c0,0.82-0.14,1.66-0.43,2.52c-0.29,0.86-0.72,1.63-1.3,2.32c-0.58,0.69-1.33,1.25-2.22,1.69
			s-1.96,0.66-3.18,0.66c-1.21,0-2.26-0.22-3.16-0.66c-0.9-0.44-1.64-1-2.22-1.69c-0.58-0.69-1.02-1.46-1.3-2.32
			c-0.29-0.86-0.43-1.69-0.43-2.52c0-0.82,0.14-1.66,0.43-2.5c0.29-0.85,0.72-1.62,1.3-2.32c0.58-0.7,1.33-1.26,2.22-1.7
			C-679.65,1402.04-678.6,1401.82-677.39,1401.82z M-677.39,1405.28c-0.56,0-1.04,0.11-1.45,0.34c-0.41,0.23-0.75,0.52-1.01,0.88
			c-0.26,0.35-0.46,0.75-0.59,1.19c-0.13,0.44-0.2,0.87-0.2,1.3c0,0.43,0.07,0.87,0.2,1.3c0.13,0.44,0.33,0.83,0.59,1.19
			c0.26,0.35,0.6,0.64,1.01,0.87c0.41,0.22,0.89,0.33,1.45,0.33c0.57,0,1.06-0.11,1.47-0.33c0.41-0.22,0.75-0.51,1.02-0.87
			c0.27-0.35,0.47-0.75,0.61-1.19c0.13-0.44,0.2-0.87,0.2-1.3c0-0.43-0.07-0.87-0.2-1.3c-0.13-0.44-0.33-0.83-0.61-1.19
			c-0.27-0.35-0.61-0.65-1.02-0.88C-676.33,1405.4-676.82,1405.28-677.39,1405.28z"/>
	</g>
	<g>
		<path class="st0" d="M-832.39,1413.48v8.9h-14.89c-1.64,0-2.97-1.33-2.97-2.97v-14.89h8.9v6.41c0,1.4,1.14,2.54,2.54,2.54H-832.39
			z"/>
	</g>
	<g>
		<path class="st0" d="M-823.49,1413.48h-8.9v-6.41c0-1.4-1.14-2.54-2.54-2.54h-6.41v-8.9h14.89c1.64,0,2.97,1.33,2.97,2.97V1413.48
			z"/>
	</g>
</g>
<g>
	<g>
		<path class="st0" d="M-851.25,1642.86h13.62v3.45h-9.78v1.93h9.14v3.45h-9.14v5.41h-3.84V1642.86z"/>
		<path class="st0" d="M-834.3,1642.86h13.88v3.45h-10.04v1.93h9.4v3.45h-9.4v1.97h10.04v3.43h-13.88V1642.86z"/>
		<path class="st0" d="M-816.84,1642.86h3.84v10.81h7.72v3.43h-11.56V1642.86z"/>
		<path class="st0" d="M-802.22,1642.86h3.84v10.81h7.72v3.43h-11.56V1642.86z"/>
		<path class="st0" d="M-781.58,1642.61c1.26,0,2.35,0.23,3.27,0.68c0.92,0.45,1.68,1.03,2.28,1.75c0.6,0.72,1.05,1.51,1.34,2.38
			c0.29,0.87,0.44,1.73,0.44,2.57c0,0.84-0.15,1.71-0.44,2.58c-0.29,0.88-0.74,1.67-1.34,2.38c-0.6,0.71-1.36,1.29-2.28,1.74
			c-0.92,0.45-2.01,0.68-3.27,0.68c-1.24,0-2.33-0.23-3.25-0.68c-0.92-0.45-1.68-1.03-2.28-1.74c-0.6-0.71-1.05-1.5-1.34-2.38
			c-0.29-0.88-0.44-1.74-0.44-2.58c0-0.84,0.15-1.7,0.44-2.57c0.29-0.87,0.74-1.67,1.34-2.38c0.6-0.71,1.36-1.3,2.28-1.75
			C-783.91,1642.83-782.82,1642.61-781.58,1642.61z M-781.58,1646.17c-0.57,0-1.07,0.12-1.49,0.35c-0.42,0.24-0.77,0.54-1.04,0.9
			c-0.27,0.36-0.48,0.77-0.61,1.22c-0.14,0.45-0.2,0.9-0.2,1.34c0,0.44,0.07,0.89,0.2,1.34c0.14,0.45,0.34,0.86,0.61,1.22
			c0.27,0.36,0.62,0.66,1.04,0.89c0.42,0.23,0.92,0.34,1.49,0.34c0.59,0,1.09-0.11,1.51-0.34c0.42-0.23,0.77-0.53,1.05-0.89
			c0.28-0.36,0.49-0.77,0.62-1.22c0.14-0.45,0.2-0.9,0.2-1.34c0-0.44-0.07-0.89-0.2-1.34c-0.14-0.45-0.34-0.86-0.62-1.22
			c-0.28-0.36-0.63-0.66-1.05-0.9C-780.49,1646.28-780.99,1646.17-781.58,1646.17z"/>
		<path class="st0" d="M-771.86,1642.86h3.8l1.31,7.66l1.91-5.66h3.45l2.02,5.68l1.18-7.68h3.8l-2.1,14.24h-3.71l-2.92-6.2l-2.9,6.2
			h-3.71L-771.86,1642.86z"/>
		<path class="st0" d="M-751.36,1657.11v-14.24h10.55c0.8,0,1.48,0.14,2.05,0.41c0.56,0.27,1.03,0.62,1.39,1.05
			c0.36,0.43,0.63,0.91,0.79,1.44c0.16,0.53,0.25,1.06,0.25,1.59c0,0.53-0.09,1.05-0.27,1.57c-0.18,0.51-0.45,0.98-0.82,1.39
			c-0.36,0.41-0.83,0.75-1.39,1.01c-0.57,0.26-1.23,0.39-2.01,0.39h-6.71v5.41H-751.36z M-747.52,1648.25h6.71
			c0.2,0,0.36-0.07,0.47-0.2c0.11-0.14,0.17-0.33,0.17-0.57v-0.39c0-0.24-0.06-0.43-0.17-0.57c-0.11-0.14-0.27-0.2-0.47-0.2h-6.71
			V1648.25z"/>
		<path class="st0" d="M-733.15,1657.11v-14.24h9.91c0.8,0,1.48,0.14,2.05,0.41c0.56,0.27,1.03,0.62,1.39,1.05
			c0.36,0.43,0.63,0.91,0.79,1.44c0.16,0.53,0.25,1.06,0.25,1.59c0,0.42-0.06,0.83-0.17,1.26c-0.11,0.42-0.29,0.82-0.53,1.2
			c-0.24,0.38-0.54,0.72-0.92,1.01c-0.38,0.29-0.84,0.52-1.38,0.68c0,0.01,0,0.02,0.01,0.02c0.01,0,0.01,0.01,0.01,0.02l3.39,5.58
			h-4.33l-3.26-5.41h-3.37v5.41H-733.15z M-729.31,1648.25h6.07c0.2,0,0.36-0.07,0.47-0.2c0.11-0.14,0.17-0.33,0.17-0.57v-0.39
			c0-0.24-0.06-0.43-0.17-0.57c-0.11-0.14-0.27-0.2-0.47-0.2h-6.07V1648.25z"/>
		<path class="st0" d="M-708.59,1642.61c1.26,0,2.35,0.23,3.27,0.68c0.92,0.45,1.68,1.03,2.28,1.75c0.6,0.72,1.05,1.51,1.34,2.38
			c0.29,0.87,0.44,1.73,0.44,2.57c0,0.84-0.15,1.71-0.44,2.58c-0.29,0.88-0.74,1.67-1.34,2.38c-0.6,0.71-1.36,1.29-2.28,1.74
			c-0.92,0.45-2.01,0.68-3.27,0.68c-1.24,0-2.33-0.23-3.25-0.68c-0.92-0.45-1.68-1.03-2.28-1.74c-0.6-0.71-1.05-1.5-1.34-2.38
			c-0.29-0.88-0.44-1.74-0.44-2.58c0-0.84,0.15-1.7,0.44-2.57c0.29-0.87,0.74-1.67,1.34-2.38c0.6-0.71,1.36-1.3,2.28-1.75
			C-710.91,1642.83-709.83,1642.61-708.59,1642.61z M-708.59,1646.17c-0.57,0-1.07,0.12-1.49,0.35c-0.42,0.24-0.77,0.54-1.04,0.9
			c-0.27,0.36-0.48,0.77-0.61,1.22c-0.14,0.45-0.2,0.9-0.2,1.34c0,0.44,0.07,0.89,0.2,1.34c0.14,0.45,0.34,0.86,0.61,1.22
			c0.27,0.36,0.62,0.66,1.04,0.89c0.42,0.23,0.92,0.34,1.49,0.34c0.59,0,1.09-0.11,1.51-0.34c0.42-0.23,0.77-0.53,1.05-0.89
			c0.28-0.36,0.49-0.77,0.62-1.22c0.14-0.45,0.2-0.9,0.2-1.34c0-0.44-0.07-0.89-0.2-1.34c-0.14-0.45-0.34-0.86-0.62-1.22
			c-0.28-0.36-0.63-0.66-1.05-0.9C-707.5,1646.28-708,1646.17-708.59,1646.17z"/>
	</g>
	<g>
		<g>
			<path class="st0" d="M-771.65,1624.99v9.15h-15.3c-1.68,0-3.05-1.36-3.05-3.05v-15.3h9.15v6.59c0,1.44,1.17,2.61,2.61,2.61
				H-771.65z"/>
		</g>
		<g>
			<path class="st0" d="M-762.5,1624.99h-9.15v-6.59c0-1.44-1.17-2.61-2.61-2.61h-6.59v-9.15h15.3c1.68,0,3.05,1.36,3.05,3.05
				V1624.99z"/>
		</g>
	</g>
</g>
<g>
	<g>
		<path class="st0" d="M-576,1620.73h27.24v6.91h-19.56v3.86h18.28v6.91h-18.28v10.81H-576V1620.73z"/>
		<path class="st0" d="M-542.11,1620.73h27.76v6.91h-20.08v3.86h18.79v6.91h-18.79v3.95h20.08v6.86h-27.76V1620.73z"/>
		<path class="st0" d="M-507.19,1620.73h7.68v21.62h15.44v6.86h-23.12V1620.73z"/>
		<path class="st0" d="M-477.93,1620.73h7.68v21.62h15.44v6.86h-23.12V1620.73z"/>
		<path class="st0" d="M-436.66,1620.21c2.52,0,4.7,0.45,6.54,1.35c1.84,0.9,3.37,2.07,4.57,3.5c1.2,1.43,2.09,3.02,2.68,4.76
			c0.59,1.74,0.88,3.46,0.88,5.15c0,1.69-0.29,3.41-0.88,5.17c-0.59,1.76-1.48,3.35-2.68,4.76c-1.2,1.42-2.72,2.57-4.57,3.47
			c-1.84,0.9-4.03,1.35-6.54,1.35c-2.49,0-4.65-0.45-6.5-1.35c-1.84-0.9-3.37-2.06-4.57-3.47c-1.2-1.42-2.1-3-2.68-4.76
			c-0.59-1.76-0.88-3.48-0.88-5.17c0-1.69,0.29-3.4,0.88-5.15c0.59-1.74,1.48-3.33,2.68-4.76c1.2-1.43,2.72-2.6,4.57-3.5
			C-441.32,1620.66-439.15,1620.21-436.66,1620.21z M-436.66,1627.33c-1.14,0-2.14,0.24-2.98,0.71c-0.84,0.47-1.54,1.07-2.08,1.8
			c-0.54,0.73-0.95,1.54-1.22,2.45c-0.27,0.9-0.41,1.8-0.41,2.68c0,0.89,0.14,1.78,0.41,2.68c0.27,0.9,0.68,1.72,1.22,2.45
			c0.54,0.73,1.24,1.32,2.08,1.78c0.84,0.46,1.84,0.69,2.98,0.69c1.17,0,2.18-0.23,3.02-0.69c0.84-0.46,1.54-1.05,2.1-1.78
			c0.56-0.73,0.97-1.54,1.24-2.45c0.27-0.9,0.41-1.79,0.41-2.68c0-0.89-0.14-1.78-0.41-2.68c-0.27-0.9-0.69-1.72-1.24-2.45
			c-0.56-0.73-1.26-1.33-2.1-1.8C-434.48,1627.57-435.49,1627.33-436.66,1627.33z"/>
		<path class="st0" d="M-417.23,1620.73h7.59l2.62,15.32l3.82-11.33h6.91l4.03,11.37l2.36-15.36h7.59l-4.2,28.49h-7.42l-5.83-12.4
			l-5.79,12.4h-7.42L-417.23,1620.73z"/>
		<path class="st0" d="M-376.21,1649.21v-28.49h21.11c1.6,0,2.97,0.27,4.1,0.82c1.13,0.54,2.06,1.24,2.79,2.1
			c0.73,0.86,1.26,1.82,1.59,2.87c0.33,1.06,0.49,2.12,0.49,3.17c0,1.06-0.18,2.1-0.54,3.13c-0.36,1.03-0.9,1.96-1.63,2.79
			c-0.73,0.83-1.66,1.5-2.79,2.02c-1.13,0.51-2.47,0.77-4.01,0.77h-13.43v10.81H-376.21z M-368.54,1631.49h13.43
			c0.4,0,0.71-0.14,0.94-0.41c0.23-0.27,0.34-0.65,0.34-1.14v-0.77c0-0.49-0.11-0.86-0.34-1.14c-0.23-0.27-0.54-0.41-0.94-0.41
			h-13.43V1631.49z"/>
		<path class="st0" d="M-339.79,1649.21v-28.49h19.82c1.6,0,2.97,0.27,4.1,0.82c1.13,0.54,2.06,1.24,2.79,2.1
			c0.73,0.86,1.26,1.82,1.59,2.87c0.33,1.06,0.49,2.12,0.49,3.17c0,0.83-0.11,1.67-0.34,2.51c-0.23,0.84-0.58,1.64-1.05,2.4
			c-0.47,0.76-1.09,1.43-1.84,2.02c-0.76,0.59-1.68,1.04-2.77,1.35c0,0.03,0.01,0.04,0.02,0.04c0.01,0,0.02,0.01,0.02,0.04
			l6.78,11.15h-8.67l-6.52-10.81h-6.74v10.81H-339.79z M-332.11,1631.49h12.14c0.4,0,0.71-0.14,0.94-0.41
			c0.23-0.27,0.34-0.65,0.34-1.14v-0.77c0-0.49-0.11-0.86-0.34-1.14c-0.23-0.27-0.54-0.41-0.94-0.41h-12.14V1631.49z"/>
		<path class="st0" d="M-290.67,1620.21c2.52,0,4.7,0.45,6.54,1.35c1.84,0.9,3.37,2.07,4.57,3.5c1.2,1.43,2.09,3.02,2.68,4.76
			c0.59,1.74,0.88,3.46,0.88,5.15c0,1.69-0.29,3.41-0.88,5.17c-0.59,1.76-1.48,3.35-2.68,4.76c-1.2,1.42-2.72,2.57-4.57,3.47
			c-1.84,0.9-4.03,1.35-6.54,1.35c-2.49,0-4.65-0.45-6.5-1.35c-1.84-0.9-3.37-2.06-4.57-3.47c-1.2-1.42-2.1-3-2.68-4.76
			c-0.59-1.76-0.88-3.48-0.88-5.17c0-1.69,0.29-3.4,0.88-5.15c0.59-1.74,1.48-3.33,2.68-4.76c1.2-1.43,2.72-2.6,4.57-3.5
			C-295.33,1620.66-293.16,1620.21-290.67,1620.21z M-290.67,1627.33c-1.14,0-2.14,0.24-2.98,0.71c-0.84,0.47-1.54,1.07-2.08,1.8
			c-0.54,0.73-0.95,1.54-1.22,2.45c-0.27,0.9-0.41,1.8-0.41,2.68c0,0.89,0.14,1.78,0.41,2.68c0.27,0.9,0.68,1.72,1.22,2.45
			c0.54,0.73,1.24,1.32,2.08,1.78c0.84,0.46,1.84,0.69,2.98,0.69c1.17,0,2.18-0.23,3.02-0.69c0.84-0.46,1.54-1.05,2.1-1.78
			c0.56-0.73,0.97-1.54,1.24-2.45c0.27-0.9,0.41-1.79,0.41-2.68c0-0.89-0.14-1.78-0.41-2.68c-0.27-0.9-0.69-1.72-1.24-2.45
			c-0.56-0.73-1.26-1.33-2.1-1.8C-288.49,1627.57-289.5,1627.33-290.67,1627.33z"/>
	</g>
	<g>
		<g>
			<path class="st0" d="M-416.8,1584.98v18.3h-30.61c-3.37,0-6.1-2.73-6.1-6.1v-30.61h18.3v13.19c0,2.88,2.34,5.22,5.22,5.22H-416.8
				z"/>
		</g>
		<g>
			<path class="st0" d="M-398.5,1584.98h-18.3v-13.19c0-2.88-2.34-5.22-5.22-5.22h-13.19v-18.3h30.61c3.37,0,6.1,2.73,6.1,6.1
				V1584.98z"/>
		</g>
	</g>
</g>
<g>
	<g>
		<path class="st0" d="M66,1708.45h54.48v13.81H81.36v7.72h36.55v13.81H81.36v21.62H66V1708.45z"/>
		<path class="st0" d="M133.78,1708.45h55.51v13.81h-40.15v7.72h37.58v13.81h-37.58v7.89h40.15v13.73h-55.51V1708.45z"/>
		<path class="st0" d="M203.62,1708.45h15.36v43.24h30.89v13.73h-46.25V1708.45z"/>
		<path class="st0" d="M262.14,1708.45h15.36v43.24h30.89v13.73h-46.25V1708.45z"/>
		<path class="st0" d="M344.68,1707.42c5.03,0,9.4,0.9,13.08,2.7c3.69,1.8,6.73,4.13,9.14,6.99c2.4,2.86,4.19,6.04,5.36,9.52
			c1.17,3.49,1.76,6.92,1.76,10.3c0,3.38-0.59,6.82-1.76,10.34c-1.17,3.52-2.96,6.69-5.36,9.52c-2.4,2.83-5.45,5.15-9.14,6.95
			c-3.69,1.8-8.05,2.7-13.08,2.7c-4.98,0-9.31-0.9-13-2.7c-3.69-1.8-6.74-4.12-9.14-6.95c-2.4-2.83-4.19-6.01-5.36-9.52
			c-1.17-3.52-1.76-6.96-1.76-10.34c0-3.37,0.59-6.81,1.76-10.3c1.17-3.49,2.96-6.66,5.36-9.52c2.4-2.86,5.45-5.19,9.14-6.99
			C335.37,1708.32,339.7,1707.42,344.68,1707.42z M344.68,1721.66c-2.29,0-4.28,0.47-5.96,1.42c-1.69,0.94-3.08,2.15-4.16,3.6
			c-1.09,1.46-1.9,3.09-2.44,4.89c-0.54,1.8-0.82,3.59-0.82,5.36c0,1.77,0.27,3.56,0.82,5.36c0.54,1.8,1.36,3.43,2.44,4.89
			c1.09,1.46,2.47,2.65,4.16,3.56c1.69,0.92,3.67,1.37,5.96,1.37c2.35,0,4.36-0.46,6.05-1.37c1.69-0.91,3.09-2.1,4.2-3.56
			c1.12-1.46,1.94-3.09,2.49-4.89c0.54-1.8,0.82-3.59,0.82-5.36c0-1.77-0.27-3.56-0.82-5.36c-0.54-1.8-1.37-3.43-2.49-4.89
			c-1.12-1.46-2.52-2.66-4.2-3.6C349.04,1722.14,347.02,1721.66,344.68,1721.66z"/>
		<path class="st0" d="M383.55,1708.45h15.19l5.23,30.63l7.64-22.65h13.81l8.07,22.74l4.72-30.72h15.19l-8.41,56.97h-14.84
			l-11.67-24.8l-11.58,24.8h-14.84L383.55,1708.45z"/>
		<path class="st0" d="M465.57,1765.42v-56.97h42.21c3.2,0,5.93,0.54,8.19,1.63c2.26,1.09,4.12,2.49,5.58,4.2
			c1.46,1.72,2.52,3.63,3.17,5.75c0.66,2.12,0.99,4.23,0.99,6.35c0,2.12-0.36,4.2-1.07,6.26c-0.72,2.06-1.8,3.92-3.26,5.58
			c-1.46,1.66-3.32,3-5.58,4.03c-2.26,1.03-4.93,1.54-8.02,1.54h-26.86v21.62H465.57z M480.93,1729.99h26.86
			c0.8,0,1.43-0.27,1.89-0.82c0.46-0.54,0.69-1.3,0.69-2.27v-1.54c0-0.97-0.23-1.73-0.69-2.27c-0.46-0.54-1.09-0.81-1.89-0.81
			h-26.86V1729.99z"/>
		<path class="st0" d="M538.41,1765.42v-56.97h39.64c3.2,0,5.93,0.54,8.19,1.63c2.26,1.09,4.12,2.49,5.58,4.2
			c1.46,1.72,2.52,3.63,3.17,5.75c0.66,2.12,0.99,4.23,0.99,6.35c0,1.66-0.23,3.33-0.69,5.02c-0.46,1.69-1.16,3.29-2.1,4.8
			c-0.94,1.52-2.17,2.86-3.69,4.03c-1.52,1.17-3.36,2.07-5.53,2.7c0,0.06,0.01,0.09,0.04,0.09c0.03,0,0.04,0.03,0.04,0.09
			l13.56,22.31h-17.33l-13.04-21.62h-13.47v21.62H538.41z M553.77,1729.99h24.28c0.8,0,1.43-0.27,1.89-0.82
			c0.46-0.54,0.69-1.3,0.69-2.27v-1.54c0-0.97-0.23-1.73-0.69-2.27c-0.46-0.54-1.09-0.81-1.89-0.81h-24.28V1729.99z"/>
		<path class="st0" d="M636.66,1707.42c5.03,0,9.4,0.9,13.08,2.7c3.69,1.8,6.73,4.13,9.14,6.99c2.4,2.86,4.19,6.04,5.36,9.52
			c1.17,3.49,1.76,6.92,1.76,10.3c0,3.38-0.59,6.82-1.76,10.34c-1.17,3.52-2.96,6.69-5.36,9.52c-2.4,2.83-5.45,5.15-9.14,6.95
			c-3.69,1.8-8.05,2.7-13.08,2.7c-4.98,0-9.31-0.9-13-2.7c-3.69-1.8-6.74-4.12-9.14-6.95c-2.4-2.83-4.19-6.01-5.36-9.52
			c-1.17-3.52-1.76-6.96-1.76-10.34c0-3.37,0.59-6.81,1.76-10.3c1.17-3.49,2.96-6.66,5.36-9.52c2.4-2.86,5.45-5.19,9.14-6.99
			C627.35,1708.32,631.68,1707.42,636.66,1707.42z M636.66,1721.66c-2.29,0-4.28,0.47-5.96,1.42c-1.69,0.94-3.08,2.15-4.16,3.6
			c-1.09,1.46-1.9,3.09-2.44,4.89c-0.54,1.8-0.82,3.59-0.82,5.36c0,1.77,0.27,3.56,0.82,5.36c0.54,1.8,1.36,3.43,2.44,4.89
			c1.09,1.46,2.47,2.65,4.16,3.56c1.69,0.92,3.67,1.37,5.96,1.37c2.35,0,4.36-0.46,6.05-1.37c1.69-0.91,3.09-2.1,4.2-3.56
			c1.12-1.46,1.94-3.09,2.49-4.89c0.54-1.8,0.82-3.59,0.82-5.36c0-1.77-0.27-3.56-0.82-5.36c-0.54-1.8-1.37-3.43-2.49-4.89
			c-1.12-1.46-2.52-2.66-4.2-3.6C641.02,1722.14,639,1721.66,636.66,1721.66z"/>
	</g>
	<g>
		<g>
			<path class="st0" d="M384.41,1636.95v36.59h-61.21c-6.73,0-12.19-5.46-12.19-12.19v-61.21h36.59v26.37
				c0,5.77,4.68,10.44,10.44,10.44H384.41z"/>
		</g>
		<g>
			<path class="st0" d="M421,1636.95h-36.59v-26.37c0-5.77-4.68-10.44-10.44-10.44h-26.37v-36.59h61.21
				c6.73,0,12.19,5.46,12.19,12.19V1636.95z"/>
		</g>
	</g>
</g>
<g>
	<g>
		<path class="st1" d="M-1849.71,1298.2h58.91v14.94h-42.3v8.35h39.52v14.94h-39.52v23.38h-16.6V1298.2z"/>
		<path class="st1" d="M-1776.42,1298.2h60.02v14.94h-43.41v8.35h40.63v14.94h-40.63v8.53h43.41v14.84h-60.02V1298.2z"/>
		<path class="st1" d="M-1700.91,1298.2h16.61v46.75h33.4v14.84h-50V1298.2z"/>
		<path class="st1" d="M-1637.65,1298.2h16.61v46.75h33.4v14.84h-50V1298.2z"/>
		<path class="st1" d="M-1548.41,1297.09c5.44,0,10.16,0.97,14.15,2.92c3.99,1.95,7.28,4.47,9.88,7.56c2.6,3.09,4.53,6.53,5.8,10.3
			c1.27,3.77,1.9,7.48,1.9,11.13c0,3.65-0.63,7.38-1.9,11.18c-1.27,3.8-3.2,7.24-5.8,10.3c-2.6,3.06-5.89,5.57-9.88,7.51
			c-3.99,1.95-8.71,2.92-14.15,2.92c-5.38,0-10.07-0.97-14.05-2.92c-3.99-1.95-7.28-4.45-9.88-7.51c-2.6-3.06-4.53-6.49-5.8-10.3
			c-1.27-3.8-1.9-7.53-1.9-11.18c0-3.65,0.63-7.36,1.9-11.13c1.27-3.77,3.2-7.2,5.8-10.3c2.6-3.09,5.89-5.61,9.88-7.56
			C-1558.47,1298.06-1553.79,1297.09-1548.41,1297.09z M-1548.41,1312.49c-2.47,0-4.62,0.51-6.45,1.53c-1.83,1.02-3.33,2.32-4.5,3.9
			c-1.18,1.58-2.06,3.34-2.64,5.29c-0.59,1.95-0.88,3.88-0.88,5.8c0,1.92,0.29,3.85,0.88,5.8c0.59,1.95,1.47,3.71,2.64,5.29
			c1.17,1.58,2.67,2.86,4.5,3.85c1.82,0.99,3.97,1.48,6.45,1.48c2.54,0,4.72-0.49,6.54-1.48c1.82-0.99,3.34-2.27,4.55-3.85
			c1.21-1.58,2.1-3.34,2.69-5.29c0.59-1.95,0.88-3.88,0.88-5.8c0-1.92-0.3-3.85-0.88-5.8c-0.59-1.95-1.48-3.71-2.69-5.29
			c-1.21-1.58-2.72-2.88-4.55-3.9C-1543.69,1313-1545.87,1312.49-1548.41,1312.49z"/>
		<path class="st1" d="M-1506.38,1298.2h16.42l5.66,33.12l8.26-24.49h14.94l8.72,24.58l5.1-33.21h16.42l-9.09,61.6h-16.05
			l-12.62-26.81l-12.52,26.81h-16.05L-1506.38,1298.2z"/>
		<path class="st1" d="M-1417.7,1359.8v-61.6h45.64c3.46,0,6.42,0.59,8.86,1.76c2.44,1.18,4.45,2.69,6.03,4.55
			c1.58,1.85,2.72,3.93,3.43,6.21c0.71,2.29,1.07,4.58,1.07,6.86c0,2.29-0.39,4.55-1.16,6.77c-0.77,2.23-1.95,4.24-3.53,6.03
			c-1.58,1.79-3.59,3.25-6.03,4.36c-2.44,1.11-5.33,1.67-8.67,1.67h-29.04v23.38H-1417.7z M-1401.1,1321.49h29.04
			c0.87,0,1.54-0.29,2.04-0.88c0.49-0.59,0.74-1.41,0.74-2.46v-1.67c0-1.05-0.25-1.87-0.74-2.46c-0.5-0.59-1.18-0.88-2.04-0.88
			h-29.04V1321.49z"/>
		<path class="st1" d="M-1338.94,1359.8v-61.6h42.86c3.46,0,6.42,0.59,8.86,1.76c2.44,1.18,4.45,2.69,6.03,4.55
			c1.58,1.85,2.72,3.93,3.43,6.21c0.71,2.29,1.07,4.58,1.07,6.86c0,1.8-0.25,3.6-0.74,5.43c-0.5,1.82-1.25,3.56-2.27,5.19
			c-1.02,1.64-2.35,3.09-3.99,4.36c-1.64,1.27-3.63,2.24-5.98,2.92c0,0.06,0.01,0.09,0.05,0.09c0.03,0,0.05,0.03,0.05,0.09
			l14.66,24.12h-18.74l-14.1-23.38h-14.56v23.38H-1338.94z M-1322.34,1321.49h26.25c0.87,0,1.54-0.29,2.04-0.88
			c0.49-0.59,0.74-1.41,0.74-2.46v-1.67c0-1.05-0.25-1.87-0.74-2.46c-0.5-0.59-1.18-0.88-2.04-0.88h-26.25V1321.49z"/>
		<path class="st1" d="M-1232.73,1297.09c5.44,0,10.16,0.97,14.15,2.92c3.99,1.95,7.28,4.47,9.88,7.56c2.6,3.09,4.53,6.53,5.8,10.3
			c1.27,3.77,1.9,7.48,1.9,11.13c0,3.65-0.63,7.38-1.9,11.18c-1.27,3.8-3.2,7.24-5.8,10.3c-2.6,3.06-5.89,5.57-9.88,7.51
			c-3.99,1.95-8.71,2.92-14.15,2.92c-5.38,0-10.06-0.97-14.05-2.92c-3.99-1.95-7.28-4.45-9.88-7.51c-2.6-3.06-4.53-6.49-5.8-10.3
			c-1.27-3.8-1.9-7.53-1.9-11.18c0-3.65,0.63-7.36,1.9-11.13c1.27-3.77,3.2-7.2,5.8-10.3c2.6-3.09,5.89-5.61,9.88-7.56
			C-1242.79,1298.06-1238.11,1297.09-1232.73,1297.09z M-1232.73,1312.49c-2.47,0-4.62,0.51-6.45,1.53c-1.83,1.02-3.33,2.32-4.5,3.9
			c-1.18,1.58-2.06,3.34-2.64,5.29c-0.59,1.95-0.88,3.88-0.88,5.8c0,1.92,0.29,3.85,0.88,5.8c0.59,1.95,1.47,3.71,2.64,5.29
			c1.17,1.58,2.67,2.86,4.5,3.85c1.82,0.99,3.97,1.48,6.45,1.48c2.54,0,4.72-0.49,6.54-1.48c1.82-0.99,3.34-2.27,4.55-3.85
			c1.21-1.58,2.1-3.34,2.69-5.29c0.59-1.95,0.88-3.88,0.88-5.8c0-1.92-0.29-3.85-0.88-5.8c-0.59-1.95-1.48-3.71-2.69-5.29
			c-1.21-1.58-2.72-2.88-4.55-3.9C-1228.01,1313-1230.19,1312.49-1232.73,1312.49z"/>
	</g>
	<g>
		<path class="st1" d="M-1921.63,1348.9v39.56h-66.18c-7.28,0-13.18-5.9-13.18-13.18v-66.18h39.56v28.51
			c0,6.24,5.06,11.29,11.29,11.29H-1921.63z"/>
	</g>
	<g>
		<path class="st1" d="M-1882.07,1348.9h-39.56v-28.51c0-6.24-5.06-11.29-11.29-11.29h-28.51v-39.56h66.18
			c7.28,0,13.18,5.9,13.18,13.18V1348.9z"/>
	</g>
</g>
<g>
	<g>
		<g>
			<path class="st1" d="M-2451.77,899.09v99.8h-166.94c-18.37,0-33.26-14.89-33.26-33.26V798.69h99.8v71.92
				c0,15.73,12.75,28.48,28.48,28.48H-2451.77z"/>
		</g>
	</g>
	<g>
		<g>
			<path class="st1" d="M-2351.97,899.09h-99.8v-71.92c0-15.73-12.75-28.48-28.48-28.48h-71.92v-99.8h166.94
				c18.37,0,33.26,14.89,33.26,33.26V899.09z"/>
		</g>
	</g>
</g>
<g>
	<g>
		<g>
			<path class="st1" d="M-1503.84,676.1v232.87h-389.53c-42.86,0-77.6-34.74-77.6-77.6V441.84h232.87v167.81
				c0,36.7,29.75,66.45,66.45,66.45H-1503.84z"/>
		</g>
	</g>
	<g>
		<g>
			<path class="st1" d="M-1270.97,676.1h-232.87V508.29c0-36.7-29.75-66.45-66.45-66.45h-167.81V208.97h389.53
				c42.86,0,77.6,34.74,77.6,77.6V676.1z"/>
		</g>
	</g>
</g>
<g>
	<g>
		<g>
			<path class="st1" d="M-2901.59,1019.06v39.92h-66.78c-7.35,0-13.3-5.96-13.3-13.3V978.9h39.92v28.77
				c0,6.29,5.1,11.39,11.39,11.39H-2901.59z"/>
		</g>
	</g>
	<g>
		<g>
			<path class="st1" d="M-2861.67,1019.06h-39.92v-28.77c0-6.29-5.1-11.39-11.39-11.39h-28.77v-39.92h66.78
				c7.35,0,13.3,5.96,13.3,13.3V1019.06z"/>
		</g>
	</g>
</g>
<g>
	<g>
		<path class="st1" d="M-2621.02,1379.58h29.45v7.47h-21.15v4.17h19.76v7.47h-19.76v11.69h-8.3V1379.58z"/>
		<path class="st1" d="M-2584.38,1379.58h30.01v7.47h-21.71v4.17h20.32v7.47h-20.32v4.27h21.71v7.42h-30.01V1379.58z"/>
		<path class="st1" d="M-2546.63,1379.58h8.3v23.38h16.7v7.42h-25V1379.58z"/>
		<path class="st1" d="M-2514.99,1379.58h8.3v23.38h16.7v7.42h-25V1379.58z"/>
		<path class="st1" d="M-2470.37,1379.03c2.72,0,5.08,0.49,7.07,1.46c1.99,0.97,3.64,2.23,4.94,3.78c1.3,1.55,2.26,3.26,2.9,5.15
			c0.63,1.89,0.95,3.74,0.95,5.57c0,1.82-0.32,3.69-0.95,5.59c-0.63,1.9-1.6,3.62-2.9,5.15c-1.3,1.53-2.95,2.78-4.94,3.76
			c-1.99,0.97-4.35,1.46-7.07,1.46c-2.69,0-5.03-0.49-7.03-1.46c-1.99-0.97-3.64-2.23-4.94-3.76c-1.3-1.53-2.27-3.25-2.9-5.15
			c-0.63-1.9-0.95-3.76-0.95-5.59c0-1.82,0.32-3.68,0.95-5.57c0.63-1.89,1.6-3.6,2.9-5.15c1.3-1.55,2.95-2.81,4.94-3.78
			C-2475.4,1379.51-2473.06,1379.03-2470.37,1379.03z M-2470.37,1386.73c-1.24,0-2.31,0.26-3.22,0.77
			c-0.91,0.51-1.66,1.16-2.25,1.95c-0.59,0.79-1.03,1.67-1.32,2.64c-0.29,0.97-0.44,1.94-0.44,2.9c0,0.96,0.15,1.92,0.44,2.9
			c0.29,0.97,0.73,1.86,1.32,2.64c0.59,0.79,1.34,1.43,2.25,1.93c0.91,0.49,1.99,0.74,3.22,0.74c1.27,0,2.36-0.25,3.27-0.74
			c0.91-0.49,1.67-1.14,2.27-1.93c0.6-0.79,1.05-1.67,1.35-2.64c0.29-0.97,0.44-1.94,0.44-2.9c0-0.96-0.15-1.92-0.44-2.9
			c-0.29-0.97-0.74-1.86-1.35-2.64c-0.6-0.79-1.36-1.44-2.27-1.95C-2468.01,1386.98-2469.1,1386.73-2470.37,1386.73z"/>
		<path class="st1" d="M-2449.36,1379.58h8.21l2.83,16.56l4.13-12.25h7.47l4.36,12.29l2.55-16.6h8.21l-4.55,30.8h-8.02l-6.31-13.4
			l-6.26,13.4h-8.02L-2449.36,1379.58z"/>
		<path class="st1" d="M-2405.02,1410.38v-30.8h22.82c1.73,0,3.21,0.29,4.43,0.88c1.22,0.59,2.23,1.35,3.01,2.27
			c0.79,0.93,1.36,1.96,1.72,3.11c0.35,1.14,0.53,2.29,0.53,3.43c0,1.14-0.19,2.27-0.58,3.39c-0.39,1.11-0.97,2.12-1.76,3.01
			c-0.79,0.9-1.79,1.62-3.01,2.18c-1.22,0.56-2.67,0.84-4.34,0.84h-14.52v11.69H-2405.02z M-2396.72,1391.22h14.52
			c0.43,0,0.77-0.15,1.02-0.44c0.25-0.29,0.37-0.7,0.37-1.23v-0.83c0-0.53-0.12-0.93-0.37-1.23c-0.25-0.29-0.59-0.44-1.02-0.44
			h-14.52V1391.22z"/>
		<path class="st1" d="M-2365.64,1410.38v-30.8h21.43c1.73,0,3.21,0.29,4.43,0.88c1.22,0.59,2.23,1.35,3.01,2.27
			c0.79,0.93,1.36,1.96,1.72,3.11c0.35,1.14,0.53,2.29,0.53,3.43c0,0.9-0.12,1.8-0.37,2.71c-0.25,0.91-0.63,1.78-1.14,2.6
			c-0.51,0.82-1.18,1.55-1.99,2.18c-0.82,0.63-1.82,1.12-2.99,1.46c0,0.03,0.01,0.05,0.02,0.05c0.02,0,0.02,0.02,0.02,0.05
			l7.33,12.06h-9.37l-7.05-11.69h-7.28v11.69H-2365.64z M-2357.34,1391.22h13.13c0.43,0,0.77-0.15,1.02-0.44
			c0.25-0.29,0.37-0.7,0.37-1.23v-0.83c0-0.53-0.12-0.93-0.37-1.23c-0.25-0.29-0.59-0.44-1.02-0.44h-13.13V1391.22z"/>
		<path class="st1" d="M-2312.53,1379.03c2.72,0,5.08,0.49,7.07,1.46c1.99,0.97,3.64,2.23,4.94,3.78c1.3,1.55,2.26,3.26,2.9,5.15
			c0.63,1.89,0.95,3.74,0.95,5.57c0,1.82-0.32,3.69-0.95,5.59c-0.63,1.9-1.6,3.62-2.9,5.15c-1.3,1.53-2.95,2.78-4.94,3.76
			c-1.99,0.97-4.35,1.46-7.07,1.46c-2.69,0-5.03-0.49-7.03-1.46c-1.99-0.97-3.64-2.23-4.94-3.76c-1.3-1.53-2.27-3.25-2.9-5.15
			c-0.63-1.9-0.95-3.76-0.95-5.59c0-1.82,0.32-3.68,0.95-5.57c0.63-1.89,1.6-3.6,2.9-5.15c1.3-1.55,2.95-2.81,4.94-3.78
			C-2317.56,1379.51-2315.22,1379.03-2312.53,1379.03z M-2312.53,1386.73c-1.24,0-2.31,0.26-3.22,0.77
			c-0.91,0.51-1.66,1.16-2.25,1.95c-0.59,0.79-1.03,1.67-1.32,2.64c-0.29,0.97-0.44,1.94-0.44,2.9c0,0.96,0.15,1.92,0.44,2.9
			c0.29,0.97,0.73,1.86,1.32,2.64c0.59,0.79,1.34,1.43,2.25,1.93c0.91,0.49,1.99,0.74,3.22,0.74c1.27,0,2.36-0.25,3.27-0.74
			c0.91-0.49,1.67-1.14,2.27-1.93c0.6-0.79,1.05-1.67,1.35-2.64c0.29-0.97,0.44-1.94,0.44-2.9c0-0.96-0.15-1.92-0.44-2.9
			c-0.29-0.97-0.74-1.86-1.35-2.64c-0.6-0.79-1.36-1.44-2.27-1.95C-2310.17,1386.98-2311.26,1386.73-2312.53,1386.73z"/>
	</g>
	<g>
		<path class="st1" d="M-2656.99,1404.93v19.78h-33.09c-3.64,0-6.59-2.95-6.59-6.59v-33.09h19.78v14.26c0,3.12,2.53,5.65,5.65,5.65
			H-2656.99z"/>
	</g>
	<g>
		<path class="st1" d="M-2637.2,1404.93h-19.78v-14.26c0-3.12-2.53-5.65-5.65-5.65h-14.26v-19.78h33.09c3.64,0,6.59,2.95,6.59,6.59
			V1404.93z"/>
	</g>
</g>
<g>
	<g>
		<path class="st1" d="M-2977.21,1421.07h13.25v3.36h-9.52v1.88h8.89v3.36h-8.89v5.26h-3.74V1421.07z"/>
		<path class="st1" d="M-2960.72,1421.07h13.5v3.36h-9.77v1.88h9.14v3.36h-9.14v1.92h9.77v3.34h-13.5V1421.07z"/>
		<path class="st1" d="M-2943.73,1421.07h3.74v10.52h7.51v3.34h-11.25V1421.07z"/>
		<path class="st1" d="M-2929.5,1421.07h3.74v10.52h7.51v3.34h-11.25V1421.07z"/>
		<path class="st1" d="M-2909.42,1420.82c1.22,0,2.29,0.22,3.18,0.66s1.64,1.01,2.22,1.7c0.58,0.7,1.02,1.47,1.3,2.32
			c0.28,0.85,0.43,1.68,0.43,2.5c0,0.82-0.14,1.66-0.43,2.52c-0.29,0.86-0.72,1.63-1.3,2.32c-0.58,0.69-1.33,1.25-2.22,1.69
			s-1.96,0.66-3.18,0.66c-1.21,0-2.26-0.22-3.16-0.66s-1.64-1-2.22-1.69c-0.58-0.69-1.02-1.46-1.3-2.32
			c-0.29-0.86-0.43-1.69-0.43-2.52c0-0.82,0.14-1.66,0.43-2.5c0.29-0.85,0.72-1.62,1.3-2.32c0.58-0.7,1.33-1.26,2.22-1.7
			S-2910.63,1420.82-2909.42,1420.82z M-2909.42,1424.28c-0.56,0-1.04,0.11-1.45,0.34c-0.41,0.23-0.75,0.52-1.01,0.88
			c-0.26,0.35-0.46,0.75-0.59,1.19c-0.13,0.44-0.2,0.87-0.2,1.3c0,0.43,0.07,0.87,0.2,1.3c0.13,0.44,0.33,0.83,0.59,1.19
			c0.26,0.35,0.6,0.64,1.01,0.87c0.41,0.22,0.89,0.33,1.45,0.33c0.57,0,1.06-0.11,1.47-0.33c0.41-0.22,0.75-0.51,1.02-0.87
			c0.27-0.35,0.47-0.75,0.61-1.19c0.13-0.44,0.2-0.87,0.2-1.3c0-0.43-0.07-0.87-0.2-1.3c-0.13-0.44-0.33-0.83-0.61-1.19
			c-0.27-0.35-0.61-0.65-1.02-0.88C-2908.36,1424.4-2908.85,1424.28-2909.42,1424.28z"/>
		<path class="st1" d="M-2899.96,1421.07h3.69l1.27,7.45l1.86-5.51h3.36l1.96,5.53l1.15-7.47h3.69l-2.05,13.86h-3.61l-2.84-6.03
			l-2.82,6.03h-3.61L-2899.96,1421.07z"/>
		<path class="st1" d="M-2880.01,1434.93v-13.86h10.27c0.78,0,1.44,0.13,1.99,0.4c0.55,0.26,1,0.61,1.36,1.02s0.61,0.88,0.77,1.4
			c0.16,0.52,0.24,1.03,0.24,1.54c0,0.52-0.09,1.02-0.26,1.52c-0.17,0.5-0.44,0.95-0.79,1.36c-0.35,0.4-0.81,0.73-1.36,0.98
			c-0.55,0.25-1.2,0.38-1.95,0.38h-6.53v5.26H-2880.01z M-2876.27,1426.31h6.53c0.19,0,0.35-0.07,0.46-0.2
			c0.11-0.13,0.17-0.32,0.17-0.55v-0.38c0-0.24-0.06-0.42-0.17-0.55c-0.11-0.13-0.26-0.2-0.46-0.2h-6.53V1426.31z"/>
		<path class="st1" d="M-2862.29,1434.93v-13.86h9.64c0.78,0,1.44,0.13,1.99,0.4c0.55,0.26,1,0.61,1.36,1.02
			c0.35,0.42,0.61,0.88,0.77,1.4c0.16,0.52,0.24,1.03,0.24,1.54c0,0.4-0.06,0.81-0.17,1.22c-0.11,0.41-0.28,0.8-0.51,1.17
			c-0.23,0.37-0.53,0.7-0.9,0.98c-0.37,0.29-0.82,0.5-1.35,0.66c0,0.01,0,0.02,0.01,0.02c0.01,0,0.01,0.01,0.01,0.02l3.3,5.43h-4.22
			l-3.17-5.26h-3.28v5.26H-2862.29z M-2858.55,1426.31h5.91c0.19,0,0.35-0.07,0.46-0.2c0.11-0.13,0.17-0.32,0.17-0.55v-0.38
			c0-0.24-0.06-0.42-0.17-0.55c-0.11-0.13-0.26-0.2-0.46-0.2h-5.91V1426.31z"/>
		<path class="st1" d="M-2838.39,1420.82c1.22,0,2.29,0.22,3.18,0.66s1.64,1.01,2.22,1.7c0.58,0.7,1.02,1.47,1.3,2.32
			c0.28,0.85,0.43,1.68,0.43,2.5c0,0.82-0.14,1.66-0.43,2.52c-0.29,0.86-0.72,1.63-1.3,2.32c-0.58,0.69-1.33,1.25-2.22,1.69
			s-1.96,0.66-3.18,0.66c-1.21,0-2.26-0.22-3.16-0.66c-0.9-0.44-1.64-1-2.22-1.69c-0.58-0.69-1.02-1.46-1.3-2.32
			c-0.29-0.86-0.43-1.69-0.43-2.52c0-0.82,0.14-1.66,0.43-2.5c0.29-0.85,0.72-1.62,1.3-2.32c0.58-0.7,1.33-1.26,2.22-1.7
			C-2840.65,1421.04-2839.6,1420.82-2838.39,1420.82z M-2838.39,1424.28c-0.56,0-1.04,0.11-1.45,0.34
			c-0.41,0.23-0.75,0.52-1.01,0.88c-0.26,0.35-0.46,0.75-0.59,1.19c-0.13,0.44-0.2,0.87-0.2,1.3c0,0.43,0.07,0.87,0.2,1.3
			c0.13,0.44,0.33,0.83,0.59,1.19c0.26,0.35,0.6,0.64,1.01,0.87c0.41,0.22,0.89,0.33,1.45,0.33c0.57,0,1.06-0.11,1.47-0.33
			c0.41-0.22,0.75-0.51,1.02-0.87c0.27-0.35,0.47-0.75,0.61-1.19c0.13-0.44,0.2-0.87,0.2-1.3c0-0.43-0.07-0.87-0.2-1.3
			c-0.13-0.44-0.33-0.83-0.61-1.19c-0.27-0.35-0.61-0.65-1.02-0.88C-2837.33,1424.4-2837.82,1424.28-2838.39,1424.28z"/>
	</g>
	<g>
		<path class="st1" d="M-2993.39,1432.48v8.9h-14.89c-1.64,0-2.97-1.33-2.97-2.97v-14.89h8.9v6.41c0,1.4,1.14,2.54,2.54,2.54
			H-2993.39z"/>
	</g>
	<g>
		<path class="st1" d="M-2984.49,1432.48h-8.9v-6.41c0-1.4-1.14-2.54-2.54-2.54h-6.42v-8.9h14.89c1.64,0,2.97,1.33,2.97,2.97
			V1432.48z"/>
	</g>
</g>
<g>
	<g>
		<path class="st1" d="M-3012.25,1661.86h13.62v3.45h-9.78v1.93h9.14v3.45h-9.14v5.41h-3.84V1661.86z"/>
		<path class="st1" d="M-2995.3,1661.86h13.88v3.45h-10.04v1.93h9.4v3.45h-9.4v1.97h10.04v3.43h-13.88V1661.86z"/>
		<path class="st1" d="M-2977.84,1661.86h3.84v10.81h7.72v3.43h-11.56V1661.86z"/>
		<path class="st1" d="M-2963.22,1661.86h3.84v10.81h7.72v3.43h-11.56V1661.86z"/>
		<path class="st1" d="M-2942.58,1661.61c1.26,0,2.35,0.23,3.27,0.68c0.92,0.45,1.68,1.03,2.28,1.75c0.6,0.72,1.05,1.51,1.34,2.38
			c0.29,0.87,0.44,1.73,0.44,2.57c0,0.84-0.15,1.71-0.44,2.58c-0.29,0.88-0.74,1.67-1.34,2.38c-0.6,0.71-1.36,1.29-2.28,1.74
			c-0.92,0.45-2.01,0.68-3.27,0.68c-1.24,0-2.33-0.23-3.25-0.68c-0.92-0.45-1.68-1.03-2.28-1.74c-0.6-0.71-1.05-1.5-1.34-2.38
			c-0.29-0.88-0.44-1.74-0.44-2.58c0-0.84,0.15-1.7,0.44-2.57c0.29-0.87,0.74-1.67,1.34-2.38c0.6-0.71,1.36-1.3,2.28-1.75
			C-2944.91,1661.83-2943.82,1661.61-2942.58,1661.61z M-2942.58,1665.17c-0.57,0-1.07,0.12-1.49,0.35
			c-0.42,0.24-0.77,0.54-1.04,0.9c-0.27,0.36-0.48,0.77-0.61,1.22c-0.14,0.45-0.2,0.9-0.2,1.34c0,0.44,0.07,0.89,0.2,1.34
			c0.14,0.45,0.34,0.86,0.61,1.22c0.27,0.36,0.62,0.66,1.04,0.89c0.42,0.23,0.92,0.34,1.49,0.34c0.59,0,1.09-0.11,1.51-0.34
			c0.42-0.23,0.77-0.53,1.05-0.89c0.28-0.36,0.49-0.77,0.62-1.22c0.14-0.45,0.2-0.9,0.2-1.34c0-0.44-0.07-0.89-0.2-1.34
			c-0.14-0.45-0.34-0.86-0.62-1.22s-0.63-0.66-1.05-0.9C-2941.49,1665.28-2941.99,1665.17-2942.58,1665.17z"/>
		<path class="st1" d="M-2932.86,1661.86h3.8l1.31,7.66l1.91-5.66h3.45l2.02,5.68l1.18-7.68h3.8l-2.1,14.24h-3.71l-2.92-6.2
			l-2.9,6.2h-3.71L-2932.86,1661.86z"/>
		<path class="st1" d="M-2912.36,1676.11v-14.24h10.55c0.8,0,1.48,0.14,2.05,0.41c0.56,0.27,1.03,0.62,1.39,1.05
			c0.36,0.43,0.63,0.91,0.79,1.44c0.16,0.53,0.25,1.06,0.25,1.59c0,0.53-0.09,1.05-0.27,1.57c-0.18,0.51-0.45,0.98-0.82,1.39
			c-0.36,0.41-0.83,0.75-1.39,1.01c-0.56,0.26-1.23,0.39-2.01,0.39h-6.71v5.41H-2912.36z M-2908.52,1667.25h6.71
			c0.2,0,0.36-0.07,0.47-0.2c0.11-0.14,0.17-0.33,0.17-0.57v-0.39c0-0.24-0.06-0.43-0.17-0.57c-0.11-0.14-0.27-0.2-0.47-0.2h-6.71
			V1667.25z"/>
		<path class="st1" d="M-2894.15,1676.11v-14.24h9.91c0.8,0,1.48,0.14,2.05,0.41c0.56,0.27,1.03,0.62,1.39,1.05
			c0.36,0.43,0.63,0.91,0.79,1.44c0.16,0.53,0.25,1.06,0.25,1.59c0,0.42-0.06,0.83-0.17,1.26c-0.11,0.42-0.29,0.82-0.53,1.2
			c-0.24,0.38-0.54,0.72-0.92,1.01c-0.38,0.29-0.84,0.52-1.38,0.68c0,0.01,0,0.02,0.01,0.02c0.01,0,0.01,0.01,0.01,0.02l3.39,5.58
			h-4.33l-3.26-5.41h-3.37v5.41H-2894.15z M-2890.31,1667.25h6.07c0.2,0,0.36-0.07,0.47-0.2c0.11-0.14,0.17-0.33,0.17-0.57v-0.39
			c0-0.24-0.06-0.43-0.17-0.57c-0.11-0.14-0.27-0.2-0.47-0.2h-6.07V1667.25z"/>
		<path class="st1" d="M-2869.59,1661.61c1.26,0,2.35,0.23,3.27,0.68c0.92,0.45,1.68,1.03,2.28,1.75c0.6,0.72,1.05,1.51,1.34,2.38
			c0.29,0.87,0.44,1.73,0.44,2.57c0,0.84-0.15,1.71-0.44,2.58c-0.29,0.88-0.74,1.67-1.34,2.38c-0.6,0.71-1.36,1.29-2.28,1.74
			c-0.92,0.45-2.01,0.68-3.27,0.68c-1.24,0-2.33-0.23-3.25-0.68c-0.92-0.45-1.68-1.03-2.28-1.74c-0.6-0.71-1.05-1.5-1.34-2.38
			c-0.29-0.88-0.44-1.74-0.44-2.58c0-0.84,0.15-1.7,0.44-2.57c0.29-0.87,0.74-1.67,1.34-2.38c0.6-0.71,1.36-1.3,2.28-1.75
			C-2871.91,1661.83-2870.83,1661.61-2869.59,1661.61z M-2869.59,1665.17c-0.57,0-1.07,0.12-1.49,0.35
			c-0.42,0.24-0.77,0.54-1.04,0.9c-0.27,0.36-0.48,0.77-0.61,1.22c-0.14,0.45-0.2,0.9-0.2,1.34c0,0.44,0.07,0.89,0.2,1.34
			c0.14,0.45,0.34,0.86,0.61,1.22c0.27,0.36,0.62,0.66,1.04,0.89c0.42,0.23,0.92,0.34,1.49,0.34c0.59,0,1.09-0.11,1.51-0.34
			c0.42-0.23,0.77-0.53,1.05-0.89c0.28-0.36,0.49-0.77,0.62-1.22c0.14-0.45,0.2-0.9,0.2-1.34c0-0.44-0.07-0.89-0.2-1.34
			c-0.14-0.45-0.34-0.86-0.62-1.22c-0.28-0.36-0.63-0.66-1.05-0.9C-2868.5,1665.28-2869,1665.17-2869.59,1665.17z"/>
	</g>
	<g>
		<g>
			<path class="st1" d="M-2932.65,1643.99v9.15h-15.3c-1.68,0-3.05-1.36-3.05-3.05v-15.3h9.15v6.59c0,1.44,1.17,2.61,2.61,2.61
				H-2932.65z"/>
		</g>
		<g>
			<path class="st1" d="M-2923.5,1643.99h-9.15v-6.59c0-1.44-1.17-2.61-2.61-2.61h-6.59v-9.15h15.3c1.68,0,3.05,1.36,3.05,3.05
				V1643.99z"/>
		</g>
	</g>
</g>
<g>
	<g>
		<path class="st1" d="M-2737,1639.73h27.24v6.91h-19.56v3.86h18.28v6.91h-18.28v10.81h-7.68V1639.73z"/>
		<path class="st1" d="M-2703.11,1639.73h27.76v6.91h-20.08v3.86h18.79v6.91h-18.79v3.95h20.08v6.86h-27.76V1639.73z"/>
		<path class="st1" d="M-2668.19,1639.73h7.68v21.62h15.44v6.86h-23.12V1639.73z"/>
		<path class="st1" d="M-2638.93,1639.73h7.68v21.62h15.44v6.86h-23.12V1639.73z"/>
		<path class="st1" d="M-2597.66,1639.21c2.52,0,4.7,0.45,6.54,1.35s3.37,2.07,4.57,3.5c1.2,1.43,2.09,3.02,2.68,4.76
			c0.59,1.74,0.88,3.46,0.88,5.15c0,1.69-0.29,3.41-0.88,5.17c-0.59,1.76-1.48,3.35-2.68,4.76c-1.2,1.42-2.72,2.57-4.57,3.47
			s-4.03,1.35-6.54,1.35c-2.49,0-4.65-0.45-6.5-1.35c-1.84-0.9-3.37-2.06-4.57-3.47c-1.2-1.42-2.1-3-2.68-4.76
			c-0.59-1.76-0.88-3.48-0.88-5.17c0-1.69,0.29-3.4,0.88-5.15c0.59-1.74,1.48-3.33,2.68-4.76c1.2-1.43,2.72-2.6,4.57-3.5
			C-2602.32,1639.66-2600.15,1639.21-2597.66,1639.21z M-2597.66,1646.33c-1.14,0-2.14,0.24-2.98,0.71
			c-0.84,0.47-1.54,1.07-2.08,1.8c-0.54,0.73-0.95,1.54-1.22,2.45c-0.27,0.9-0.41,1.8-0.41,2.68c0,0.89,0.14,1.78,0.41,2.68
			c0.27,0.9,0.68,1.72,1.22,2.45c0.54,0.73,1.24,1.32,2.08,1.78c0.84,0.46,1.84,0.69,2.98,0.69c1.17,0,2.18-0.23,3.02-0.69
			c0.84-0.46,1.54-1.05,2.1-1.78c0.56-0.73,0.97-1.54,1.24-2.45c0.27-0.9,0.41-1.79,0.41-2.68c0-0.89-0.14-1.78-0.41-2.68
			c-0.27-0.9-0.69-1.72-1.24-2.45c-0.56-0.73-1.26-1.33-2.1-1.8C-2595.48,1646.57-2596.49,1646.33-2597.66,1646.33z"/>
		<path class="st1" d="M-2578.23,1639.73h7.59l2.62,15.32l3.82-11.33h6.91l4.03,11.37l2.36-15.36h7.59l-4.2,28.49h-7.42l-5.83-12.4
			l-5.79,12.4h-7.42L-2578.23,1639.73z"/>
		<path class="st1" d="M-2537.21,1668.21v-28.49h21.11c1.6,0,2.97,0.27,4.1,0.82c1.13,0.54,2.06,1.24,2.79,2.1
			c0.73,0.86,1.26,1.82,1.59,2.87c0.33,1.06,0.49,2.12,0.49,3.17c0,1.06-0.18,2.1-0.54,3.13c-0.36,1.03-0.9,1.96-1.63,2.79
			c-0.73,0.83-1.66,1.5-2.79,2.02c-1.13,0.51-2.47,0.77-4.01,0.77h-13.43v10.81H-2537.21z M-2529.54,1650.49h13.43
			c0.4,0,0.71-0.14,0.94-0.41c0.23-0.27,0.34-0.65,0.34-1.14v-0.77c0-0.49-0.11-0.86-0.34-1.14c-0.23-0.27-0.54-0.41-0.94-0.41
			h-13.43V1650.49z"/>
		<path class="st1" d="M-2500.79,1668.21v-28.49h19.82c1.6,0,2.97,0.27,4.1,0.82c1.13,0.54,2.06,1.24,2.79,2.1
			c0.73,0.86,1.26,1.82,1.59,2.87c0.33,1.06,0.49,2.12,0.49,3.17c0,0.83-0.11,1.67-0.34,2.51c-0.23,0.84-0.58,1.64-1.05,2.4
			c-0.47,0.76-1.09,1.43-1.84,2.02c-0.76,0.59-1.68,1.04-2.77,1.35c0,0.03,0.01,0.04,0.02,0.04c0.01,0,0.02,0.01,0.02,0.04
			l6.78,11.15h-8.67l-6.52-10.81h-6.74v10.81H-2500.79z M-2493.11,1650.49h12.14c0.4,0,0.71-0.14,0.94-0.41
			c0.23-0.27,0.34-0.65,0.34-1.14v-0.77c0-0.49-0.11-0.86-0.34-1.14c-0.23-0.27-0.54-0.41-0.94-0.41h-12.14V1650.49z"/>
		<path class="st1" d="M-2451.67,1639.21c2.52,0,4.7,0.45,6.54,1.35s3.37,2.07,4.57,3.5c1.2,1.43,2.09,3.02,2.68,4.76
			c0.59,1.74,0.88,3.46,0.88,5.15c0,1.69-0.29,3.41-0.88,5.17c-0.59,1.76-1.48,3.35-2.68,4.76c-1.2,1.42-2.72,2.57-4.57,3.47
			s-4.03,1.35-6.54,1.35c-2.49,0-4.65-0.45-6.5-1.35c-1.84-0.9-3.37-2.06-4.57-3.47c-1.2-1.42-2.1-3-2.68-4.76
			c-0.59-1.76-0.88-3.48-0.88-5.17c0-1.69,0.29-3.4,0.88-5.15c0.59-1.74,1.48-3.33,2.68-4.76c1.2-1.43,2.72-2.6,4.57-3.5
			C-2456.33,1639.66-2454.16,1639.21-2451.67,1639.21z M-2451.67,1646.33c-1.14,0-2.14,0.24-2.98,0.71
			c-0.84,0.47-1.54,1.07-2.08,1.8c-0.54,0.73-0.95,1.54-1.22,2.45c-0.27,0.9-0.41,1.8-0.41,2.68c0,0.89,0.14,1.78,0.41,2.68
			c0.27,0.9,0.68,1.72,1.22,2.45c0.54,0.73,1.24,1.32,2.08,1.78c0.84,0.46,1.84,0.69,2.98,0.69c1.17,0,2.18-0.23,3.02-0.69
			c0.84-0.46,1.54-1.05,2.1-1.78c0.56-0.73,0.97-1.54,1.24-2.45c0.27-0.9,0.41-1.79,0.41-2.68c0-0.89-0.14-1.78-0.41-2.68
			c-0.27-0.9-0.69-1.72-1.24-2.45c-0.56-0.73-1.26-1.33-2.1-1.8C-2449.49,1646.57-2450.5,1646.33-2451.67,1646.33z"/>
	</g>
	<g>
		<g>
			<path class="st1" d="M-2577.8,1603.98v18.3h-30.61c-3.37,0-6.1-2.73-6.1-6.1v-30.61h18.3v13.19c0,2.88,2.34,5.22,5.22,5.22
				H-2577.8z"/>
		</g>
		<g>
			<path class="st1" d="M-2559.5,1603.98h-18.3v-13.19c0-2.88-2.34-5.22-5.22-5.22h-13.19v-18.3h30.61c3.37,0,6.1,2.73,6.1,6.1
				V1603.98z"/>
		</g>
	</g>
</g>
<g>
	<g>
		<path class="st1" d="M-2095,1727.45h54.48v13.81h-39.13v7.72h36.55v13.81h-36.55v21.62H-2095V1727.45z"/>
		<path class="st1" d="M-2027.22,1727.45h55.51v13.81h-40.15v7.72h37.58v13.81h-37.58v7.89h40.15v13.73h-55.51V1727.45z"/>
		<path class="st1" d="M-1957.38,1727.45h15.36v43.24h30.89v13.73h-46.25V1727.45z"/>
		<path class="st1" d="M-1898.86,1727.45h15.36v43.24h30.89v13.73h-46.25V1727.45z"/>
		<path class="st1" d="M-1816.32,1726.42c5.03,0,9.4,0.9,13.08,2.7s6.73,4.13,9.14,6.99c2.4,2.86,4.19,6.04,5.36,9.52
			c1.17,3.49,1.76,6.92,1.76,10.3c0,3.38-0.59,6.82-1.76,10.34c-1.17,3.52-2.96,6.69-5.36,9.52c-2.4,2.83-5.45,5.15-9.14,6.95
			c-3.69,1.8-8.05,2.7-13.08,2.7c-4.98,0-9.31-0.9-13-2.7c-3.69-1.8-6.74-4.12-9.14-6.95c-2.4-2.83-4.19-6.01-5.36-9.52
			c-1.17-3.52-1.76-6.96-1.76-10.34c0-3.37,0.59-6.81,1.76-10.3c1.17-3.49,2.96-6.66,5.36-9.52c2.4-2.86,5.45-5.19,9.14-6.99
			C-1825.63,1727.32-1821.3,1726.42-1816.32,1726.42z M-1816.32,1740.66c-2.29,0-4.28,0.47-5.96,1.42c-1.69,0.94-3.08,2.15-4.16,3.6
			c-1.09,1.46-1.9,3.09-2.44,4.89c-0.54,1.8-0.82,3.59-0.82,5.36c0,1.77,0.27,3.56,0.82,5.36c0.54,1.8,1.36,3.43,2.44,4.89
			c1.09,1.46,2.47,2.65,4.16,3.56c1.69,0.92,3.67,1.37,5.96,1.37c2.34,0,4.36-0.46,6.05-1.37c1.69-0.91,3.09-2.1,4.2-3.56
			c1.12-1.46,1.94-3.09,2.49-4.89c0.54-1.8,0.82-3.59,0.82-5.36c0-1.77-0.27-3.56-0.82-5.36c-0.54-1.8-1.37-3.43-2.49-4.89
			c-1.12-1.46-2.52-2.66-4.2-3.6C-1811.96,1741.14-1813.98,1740.66-1816.32,1740.66z"/>
		<path class="st1" d="M-1777.45,1727.45h15.19l5.23,30.63l7.64-22.65h13.81l8.07,22.74l4.72-30.72h15.19l-8.41,56.97h-14.84
			l-11.67-24.8l-11.58,24.8h-14.84L-1777.45,1727.45z"/>
		<path class="st1" d="M-1695.43,1784.42v-56.97h42.21c3.2,0,5.93,0.54,8.19,1.63c2.26,1.09,4.12,2.49,5.58,4.2
			c1.46,1.72,2.52,3.63,3.17,5.75c0.66,2.12,0.99,4.23,0.99,6.35c0,2.12-0.36,4.2-1.07,6.26c-0.72,2.06-1.8,3.92-3.26,5.58
			c-1.46,1.66-3.32,3-5.58,4.03c-2.26,1.03-4.93,1.54-8.02,1.54h-26.86v21.62H-1695.43z M-1680.07,1748.99h26.86
			c0.8,0,1.43-0.27,1.89-0.82c0.46-0.54,0.69-1.3,0.69-2.27v-1.54c0-0.97-0.23-1.73-0.69-2.27c-0.46-0.54-1.09-0.81-1.89-0.81
			h-26.86V1748.99z"/>
		<path class="st1" d="M-1622.59,1784.42v-56.97h39.64c3.2,0,5.93,0.54,8.19,1.63c2.26,1.09,4.12,2.49,5.58,4.2
			c1.46,1.72,2.52,3.63,3.17,5.75c0.66,2.12,0.99,4.23,0.99,6.35c0,1.66-0.23,3.33-0.69,5.02c-0.46,1.69-1.16,3.29-2.1,4.8
			c-0.94,1.52-2.17,2.86-3.69,4.03c-1.52,1.17-3.36,2.07-5.53,2.7c0,0.06,0.01,0.09,0.04,0.09c0.03,0,0.04,0.03,0.04,0.09
			l13.56,22.31h-17.33l-13.04-21.62h-13.47v21.62H-1622.59z M-1607.23,1748.99h24.28c0.8,0,1.43-0.27,1.89-0.82
			c0.46-0.54,0.69-1.3,0.69-2.27v-1.54c0-0.97-0.23-1.73-0.69-2.27c-0.46-0.54-1.09-0.81-1.89-0.81h-24.28V1748.99z"/>
		<path class="st1" d="M-1524.34,1726.42c5.03,0,9.4,0.9,13.08,2.7s6.73,4.13,9.14,6.99c2.4,2.86,4.19,6.04,5.36,9.52
			c1.17,3.49,1.76,6.92,1.76,10.3c0,3.38-0.59,6.82-1.76,10.34c-1.17,3.52-2.96,6.69-5.36,9.52c-2.4,2.83-5.45,5.15-9.14,6.95
			c-3.69,1.8-8.05,2.7-13.08,2.7c-4.98,0-9.31-0.9-13-2.7c-3.69-1.8-6.74-4.12-9.14-6.95c-2.4-2.83-4.19-6.01-5.36-9.52
			c-1.17-3.52-1.76-6.96-1.76-10.34c0-3.37,0.59-6.81,1.76-10.3c1.17-3.49,2.96-6.66,5.36-9.52c2.4-2.86,5.45-5.19,9.14-6.99
			C-1533.65,1727.32-1529.32,1726.42-1524.34,1726.42z M-1524.34,1740.66c-2.29,0-4.28,0.47-5.96,1.42
			c-1.69,0.94-3.08,2.15-4.16,3.6c-1.09,1.46-1.9,3.09-2.44,4.89c-0.54,1.8-0.82,3.59-0.82,5.36c0,1.77,0.27,3.56,0.82,5.36
			c0.54,1.8,1.36,3.43,2.44,4.89c1.09,1.46,2.47,2.65,4.16,3.56c1.69,0.92,3.67,1.37,5.96,1.37c2.34,0,4.36-0.46,6.05-1.37
			c1.69-0.91,3.09-2.1,4.2-3.56c1.12-1.46,1.94-3.09,2.49-4.89c0.54-1.8,0.82-3.59,0.82-5.36c0-1.77-0.27-3.56-0.82-5.36
			c-0.54-1.8-1.37-3.43-2.49-4.89c-1.12-1.46-2.52-2.66-4.2-3.6C-1519.98,1741.14-1522,1740.66-1524.34,1740.66z"/>
	</g>
	<g>
		<g>
			<path class="st1" d="M-1776.59,1655.95v36.59h-61.21c-6.73,0-12.19-5.46-12.19-12.19v-61.21h36.59v26.37
				c0,5.77,4.68,10.44,10.44,10.44H-1776.59z"/>
		</g>
		<g>
			<path class="st1" d="M-1740,1655.95h-36.59v-26.37c0-5.77-4.68-10.44-10.44-10.44h-26.37v-36.59h61.21
				c6.73,0,12.19,5.46,12.19,12.19V1655.95z"/>
		</g>
	</g>
</g>
</svg>
