<svg xmlns="http://www.w3.org/2000/svg" width="351.156" height="85.946" viewBox="0 0 351.156 85.946">
  <g id="LOGO_DocBits-02" transform="translate(-16.9 -20.6)">
    <g id="Gruppe_313" data-name="Gruppe 313" transform="translate(16.9 43.881)">
      <g id="Gruppe_312" data-name="Gruppe 312" transform="translate(0 0)">
        <path id="Pfad_450" data-name="Pfad 450" d="M16.9,138V82.9H42.17a35.45,35.45,0,0,1,15.957,3.444,25.63,25.63,0,0,1,14.7,24.106,26.657,26.657,0,0,1-3.88,14.5,26.344,26.344,0,0,1-10.816,9.6A35.6,35.6,0,0,1,42.17,138Zm12.95-10.379H41.539a20.823,20.823,0,0,0,9.652-2.086,15.4,15.4,0,0,0,6.354-5.966,19.28,19.28,0,0,0,0-18.188,15.4,15.4,0,0,0-6.354-5.966,20.823,20.823,0,0,0-9.652-2.086H29.85Z" transform="translate(-16.9 -75.964)" fill="#2388ae"/>
        <path id="Pfad_451" data-name="Pfad 451" d="M167.53,151.5A24.889,24.889,0,0,1,155.5,148.69a20.9,20.9,0,0,1-11.3-18.964,20.764,20.764,0,0,1,11.3-19.013,27.434,27.434,0,0,1,24.2,0,20.671,20.671,0,0,1,8.342,7.712,22.648,22.648,0,0,1,0,22.554,21.7,21.7,0,0,1-8.342,7.712A25.472,25.472,0,0,1,167.53,151.5Zm0-10.04a11.237,11.237,0,0,0,5.626-1.358,10.158,10.158,0,0,0,3.88-4.074,13.018,13.018,0,0,0,1.455-6.305,12.756,12.756,0,0,0-1.455-6.305,10.208,10.208,0,0,0-3.88-3.977,10.87,10.87,0,0,0-5.529-1.358,11.179,11.179,0,0,0-5.578,1.358,10,10,0,0,0-3.929,3.977,12.757,12.757,0,0,0-1.455,6.305,13.019,13.019,0,0,0,1.455,6.305,9.955,9.955,0,0,0,3.929,4.074A11.468,11.468,0,0,0,167.53,141.464Z" transform="translate(-82.457 -88.839)" fill="#2388ae"/>
        <path id="Pfad_452" data-name="Pfad 452" d="M275.266,151.5a25.866,25.866,0,0,1-12.271-2.813A20.842,20.842,0,0,1,251.5,129.678a20.7,20.7,0,0,1,3.056-11.253,21.637,21.637,0,0,1,8.439-7.712,25.866,25.866,0,0,1,12.271-2.813,23.547,23.547,0,0,1,11.786,2.813,16.435,16.435,0,0,1,7.275,7.906l-9.555,5.19a11.442,11.442,0,0,0-4.22-4.365,10.833,10.833,0,0,0-5.384-1.358,11.5,11.5,0,0,0-5.626,1.358,10.35,10.35,0,0,0-4.074,3.977,12.261,12.261,0,0,0-1.5,6.305,12.569,12.569,0,0,0,1.5,6.354,10.477,10.477,0,0,0,4.074,4.026,11.628,11.628,0,0,0,5.626,1.358,10.7,10.7,0,0,0,5.384-1.358,11.41,11.41,0,0,0,4.22-4.462l9.555,5.19a16.764,16.764,0,0,1-7.275,7.857A23.547,23.547,0,0,1,275.266,151.5Z" transform="translate(-137.714 -88.839)" fill="#2388ae"/>
        <path id="Pfad_453" data-name="Pfad 453" d="M356.5,138V82.9h27.21c6.984,0,12.271,1.31,15.763,3.929a12.318,12.318,0,0,1,5.287,10.379,13.287,13.287,0,0,1-2.134,7.518,13.7,13.7,0,0,1-5.917,4.9,20.192,20.192,0,0,1-8.536,1.746l1.5-3.3a23.04,23.04,0,0,1,9.264,1.746,14.214,14.214,0,0,1,6.305,5.044,13.656,13.656,0,0,1,2.328,8.1,12.864,12.864,0,0,1-5.626,11.059c-3.783,2.668-9.312,3.977-16.636,3.977Zm12.8-9.6h15.084c3.3,0,5.82-.534,7.566-1.649a5.629,5.629,0,0,0,2.619-5.093,5.686,5.686,0,0,0-2.619-5.19c-1.746-1.116-4.268-1.649-7.566-1.649H368.383V105.5h13.775c3.1,0,5.529-.534,7.178-1.6a5.485,5.485,0,0,0,2.522-4.9,5.385,5.385,0,0,0-2.522-4.9c-1.649-1.067-4.074-1.552-7.178-1.552h-12.8V128.4Z" transform="translate(-191.787 -75.964)"/>
        <path id="Pfad_454" data-name="Pfad 454" d="M484.66,82.375a7.967,7.967,0,0,1-5.626-1.989,6.3,6.3,0,0,1-2.134-4.9,6.464,6.464,0,0,1,2.134-4.9A8.049,8.049,0,0,1,484.66,68.6a8.627,8.627,0,0,1,5.626,1.843,5.913,5.913,0,0,1,2.182,4.753,6.808,6.808,0,0,1-2.134,5.093A7.612,7.612,0,0,1,484.66,82.375Zm-6.208,48.26V88.292h12.417v42.342Z" transform="translate(-253.79 -68.6)"/>
        <path id="Pfad_455" data-name="Pfad 455" d="M519,109.64v-9.458h29.635v9.458Zm22.553,32.593c-5.044,0-8.973-1.261-11.786-3.832-2.813-2.522-4.22-6.354-4.22-11.4V89.9h12.465v36.91a5.942,5.942,0,0,0,1.406,4.171,4.829,4.829,0,0,0,3.783,1.5,8.361,8.361,0,0,0,5.093-1.552l3.25,8.682a12.854,12.854,0,0,1-4.511,1.989A22.337,22.337,0,0,1,541.553,142.234Z" transform="translate(-275.47 -79.569)"/>
        <path id="Pfad_456" data-name="Pfad 456" d="M610.728,151.5a41.063,41.063,0,0,1-10.476-1.31,28.019,28.019,0,0,1-8.051-3.25l4.074-8.73a30.009,30.009,0,0,0,7.033,2.862,28.373,28.373,0,0,0,7.906,1.164c2.861,0,4.9-.339,6.063-1.019a3.126,3.126,0,0,0,1.795-2.813,2.378,2.378,0,0,0-1.406-2.231,13.373,13.373,0,0,0-3.638-1.164c-1.5-.243-3.2-.534-5.044-.776a44.658,44.658,0,0,1-5.529-1.116,23.672,23.672,0,0,1-5.093-1.989,9.826,9.826,0,0,1-3.735-3.589,11.245,11.245,0,0,1-1.407-5.917,11.378,11.378,0,0,1,2.377-7.13,15.449,15.449,0,0,1,6.742-4.85,28.552,28.552,0,0,1,10.573-1.746,42.969,42.969,0,0,1,8.924.97,28.454,28.454,0,0,1,7.615,2.716l-4.22,8.73a21.145,21.145,0,0,0-6.16-2.425,26.434,26.434,0,0,0-6.014-.728c-2.862,0-4.947.388-6.208,1.116a3.251,3.251,0,0,0-1.892,2.813,2.667,2.667,0,0,0,1.455,2.425,11.254,11.254,0,0,0,3.734,1.213c1.552.243,3.25.534,5.093.776a42.221,42.221,0,0,1,5.481,1.116,24.278,24.278,0,0,1,5.044,1.989A9.828,9.828,0,0,1,629.5,132.2a11.244,11.244,0,0,1,1.407,5.917A10.8,10.8,0,0,1,628.528,145a15.615,15.615,0,0,1-6.887,4.753A29.923,29.923,0,0,1,610.728,151.5Z" transform="translate(-313.167 -88.839)"/>
      </g>
    </g>
    <g id="Gruppe_314" data-name="Gruppe 314" transform="translate(321.3 20.6)">
      <path id="Pfad_457" data-name="Pfad 457" d="M691.256,67.356H667.927V50.574a6.624,6.624,0,0,0-6.645-6.645H644.5V20.6h39a7.783,7.783,0,0,1,7.76,7.76v39Z" transform="translate(-644.5 -20.6)" fill="#2388ae"/>
    </g>
  </g>
</svg>
